<?xml version="1.0" encoding="utf-8"?>
<!-- Generator: Adobe Illustrator 23.0.5, SVG Export Plug-In . SVG Version: 6.00 Build 0)  -->
<svg version="1.1"
	 id="svg1895" inkscape:version="1.2.2 (732a01da63, 2022-12-09)" xmlns:inkscape="http://www.inkscape.org/namespaces/inkscape" xmlns:sodipodi="http://sodipodi.sourceforge.net/DTD/sodipodi-0.dtd" xmlns:svg="http://www.w3.org/2000/svg"
	 xmlns="http://www.w3.org/2000/svg" xmlns:xlink="http://www.w3.org/1999/xlink" x="0px" y="0px" viewBox="0 0 1530.7 2138"
	 style="enable-background:new 0 0 1530.7 2138;" xml:space="preserve">
<style type="text/css">
	.st0{fill:none;stroke:#000000;stroke-width:3;}
	.st1{fill:none;stroke:#000000;}
	.st2{fill:#0E1611;stroke:#646464;stroke-width:0.3965;}
	.st3{fill:#0E1611;stroke:#646464;stroke-width:0.3965;stroke-linecap:round;stroke-linejoin:round;}
	.st4{fill:#0E1611;stroke:#646464;}
	.st5{fill:none;stroke:#580F0F;stroke-width:1.25;stroke-opacity:0.9934;}
	.st6{fill:#FFFFFF;}
	.st7{font-family:'ArialMT';}
	.st8{font-size:17.8907px;}
	.st9{fill:#0E1611;}
	.st10{fill:none;stroke:#000000;stroke-width:0.9992;}
</style>
<sodipodi:namedview  bordercolor="#000000" borderopacity="0.25" id="namedview634" inkscape:current-layer="layer3" inkscape:cx="1001.696" inkscape:cy="853.29656" inkscape:deskcolor="#d1d1d1" inkscape:pagecheckerboard="0" inkscape:pageopacity="0.0" inkscape:showpageshadow="2" inkscape:window-height="705" inkscape:window-maximized="1" inkscape:window-width="1366" inkscape:window-x="-8" inkscape:window-y="-8" inkscape:zoom="0.24258858" pagecolor="#ffffff" showgrid="false">
	</sodipodi:namedview>
<g id="layer2">
</g>
<g id="layer1">
</g>
<path id="path1921" class="st0" d="M350.8,1779.5c0-2.5-7.9-2.6-6-10C345.2,1768,355,1768.9,350.8,1779.5z"/>
<path id="path2172" class="st1" d="M19.9,236.3L19.9,236.3z"/>
<path id="path2170" class="st1" d="M324.9,137.5L324.9,137.5z"/>
<path id="path2173" class="st1" d="M331.2,128.7v-7.5h-3.8L331.2,128.7z"/>
<path id="path3149" class="st1" d="M483.7,353.9L483.7,353.9z"/>
<path id="path3150" class="st1" d="M303.3,630.5L303.3,630.5z"/>
<path id="path3166" class="st1" d="M99.9,770.7L99.9,770.7z"/>
<path id="path3173" class="st1" d="M266.4,895.8L266.4,895.8z"/>
<path id="path3175" class="st1" d="M280.4,887L280.4,887z"/>
<path id="path3168" class="st2" d="M96.1,778.2l3.8-8.8L91,758.1l1.3-16.3l-7.6-8.8l1.3-10l25.4-7.5l15.3-7.5l-1.3-10l24.1,1.3
	l3.8-3.8l-3.8-6.3l-6.4,3.8l-8.9-5l16.5-8.8l19.1,6.3l1.3,10l7.6,2.5l7.6-8.8l6.4,5l-1.3,13.8l11.4,5l28-15l-1.3-2.5l14,5l7.6,6.3
	l10.2-1.3l8.9,8.8l10.2-3.8v12.5l1.3,6.3l10.2,5h6.4v7.5l-2.5,6.3l-14,1.3l-7.6,6.3h5.1l7.6,7.5l-11.4,8.8l1.3,6.3l0,0l1.3,33.8
	l-12.7,8.8l-2.5,3.8l0,0l6.4,12.5l10.2-2.5l1.3,7.5l2.5,6.3l3.8,3.8l-16.5,6.3l-5.1,5l6.4,5l-7.6,3.8l5.1,3.8l-5.1,3.8l14,2.5l2.5,5
	l-10.2,2.5l-1.3,5h-12.7l-17.8-7.5L227,877l-5.1-2.5L213,872v-5l10.2-2.5l1.3-26.3l-8.9-18.8l-10.2-1.3l-5.1,7.5l-19.1-1.3
	l-11.4-6.3l-8.9,7.5l-11.4-6.3L138,808.2l-5.1,1.3l-1.3-6.3l-11.4-2.5l-12.7-6.3L96.1,778.2z"/>
<path id="path4167" class="st2" d="M234.6,118.7l6.4-6.3l6.4,1.3l6.4,5l-5.1,13.8l7.6,2.5l6.4,7.5l7.6-1.3l-1.3-8.8l-6.4-3.8
	l7.6-8.8l14,1.3l6.4,8.8l5.1,6.3l3.8,6.3l2.5-3.8h11.4l2.5,2.5l7.6-3.8v8.8l1.3,15l8.9,6.3l8.9,5l2.5,6.3l-1.3,7.5l-2.5,18.8
	l3.8,12.5l2.5,13.8l10.2,8.8l11.4,7.5l8.9,7.5l-3.8,10l-3.8,8.8l-3.8,5l-7.6-8.8l-12.7,11.3l1.3,13.8l-10.2-10l-6.4,12.5l-20.3-5
	l-14,3.8l5.1,12.5l-6.4,7.5l-3.8,6.3l-11.4-1.3l-10.2-8.8h-6.4v-13.8l-10.2-2.5v-30l-5.1-6.3l-5.1-8.8l-14-3.8l1.3-6.3l-3.8-2.5v-10
	l-1.3-3.8l5.1-6.3l-3.8,6.3l7.6-11.3l7.6-3.8v-21.3l3.8-7.5v-5l-1.3-17.5l3.8-7.5l-14-15V118.7z"/>
<path id="path2169" class="st3" d="M96.1,64.9l-2.5-8.8L91,49.9l6.4-8.8l5.1-11.3l5.1-15l10.2-15l2.5,16.3l1.3,8.8l10.2,10l10.2-2.5
	l2.5,8.8l10.2,2.5l1.3,7.5l10.2,3.8l1.3,5l10.2,2.5l6.4-7.5l3.8,10l5.1,6.3l7.6,5l2.5,5l6.4-2.5l3.8,3.8l-3.8,8.8l3.8,3.8l5.1,3.8
	v2.5l10.2-1.3v5l2.5,5h-16.5l1.3,11.3l-11.4,2.5l-1.3,5l10.2-1.3l8.9-3.8l8.9-7.5l6.4,5l-1.3,11.3l5.1,8.8l6.4,8.8l-2.5,8.8v12.5
	v11.3l-3.8,10l2.5,12.5l-6.4,8.8l-8.9,12.5l-10.2-2.5l-14-1.3l-5.1-10l-6.4-5l7.6-13.8l-5.1-10l-6.4-7.5l-10.2-3.8l-5.1-5l-3.8-7.5
	l-6.4,2.5c0,0-1.6-1.3-5.1-2.5c-3.5-1.3-8.9-2.5-8.9-2.5l-6.4-2.5l-6.4,5l-10.2-2.5l-8.9-3.8l-7.6,5l-1.3,6.3c0,0-4.1-0.6-8.9-2.5
	c-4.8-1.9-10.2-5-10.2-5l-2.5-3.8l8.9-5l5.1-6.3l-3.8-7.5v-17.5l14-1.3l5.1-5l5.1-7.5l11.4-3.8l2.5-8.8l6.4,10l6.4-3.8l5.1-8.8
	l-5.1-6.3l-5.1-7.5v-8.8l-8.9-7.5l-11.4,2.5l-6.4-10l-6.4,5l-7.6-1.3L96.1,64.9z"/>
<path id="path2192" class="st2" d="M28.7,303.9l-6.4-11.3l-7.6-10l5.1-11.3l-12.7-2.5l3.8-20l8.9-6.3l-1.3-7.5l5.1-10l15.3-10
	l5.1-13.8L32.6,195l6.4-11.3l2.5-11.3l14-5V155l19.1,2.5l14-3.8l19.1,12.5l3.8-10l13-2.7l11.2,3.9l10.2-1.3l25.4,6.3l10.2,11.3
	l8.9,3.8l12.7,15L194,205l2.5,8.8l-6.4,6.3l-2.5,10h-8.9l-6.4-10l-3.8,7.5h-7.6l-3.8,13.8l5.1,5l-6.4,1.3l-7.6,12.5l-2.5,7.5
	l-3.8,7.5l5.1,6.3l-7.6,1.3h-5.1v-6.3l-16.5,1.3v10h-6.4l-1.3,12.5l7.6,3.8l-5.1,5v11.3l6.4,3.8l7.6,6.3l-1.3,8.8l-8.9,1.3l-7.6-7.5
	l-6.4-3.8v-5l-8.9-8.8h-7.6l-2.5-8.8l-14-7.5l1.3-6.3l-1.3-3.8L58,292.6l-7.6,6.3l-6.4-7.5L28.7,303.9z"/>
<path id="path2175" class="st2" d="M321.1,122.4l-3.8-10l-10.2,7.5l-5.1-7.5l7.6-6.3l-3.8-6.3l-6.4-1.3l-3.8,3.8l-12.7-6.3
	l-2.5-11.3l12.7-18.8l11.4-3.8v7.5l3.8,2.5l11.4,3.8l7.6,7.5l16.5-1.3l3.8,8.8l-7.6,1.3l6.4,7.5l-6.4,7.5h15.3l5.1,8.8l-1.3,3.8
	h-7.6l-7.6-7.5v11.3l6.4,7.5l10.2,11.3l1.3,7.5l-3.8,3.8l11.4,22.5l20.3,3.8l10.2,10l1.3,7.5L396,200l1.3,2.5l8.9,1.3l10.2,5l8.9,10
	l16.5,3.8l7.6-13.8l5.1,1.3l1.3,6.3l6.4,2.5l5.1,5l5.1-3.8l-2.5,23.8l10.2,1.3l14,15l2.5-1.3v7.5h11.4l1.3,3.8l-11.4,15l-6.4,1.3
	l1.3,15l-14,10l-3.8-1.3l-1.3-11.3l-3.8,1.3l-2.5,6.3l-10.2-1.3l-7.6-2.5l-1.3,2.5l-25.4-15c0,0,6.4-7.5,0-8.8
	c-6.4-1.3-12.7-5-12.7-5v-8.8l-7.6,1.3l-11.4-8.8l-12.7-5l-7.6-8.8l-16.3-5.3l-7.8-12.2l-6.4-28.8l3.8-18.8v-7.5l-20.3-12.5l1.3-25
	l10.2-3.8l-6.4-8.8L321.1,122.4z"/>
<path id="path2174" class="st2" d="M196.5,211.3l-6.4,6.3l-2.5,10l-8.9,2.5l-7.6-11.3l-2.5,8.8h-8.9l-3.8,13.8l6.4,3.8v3.8l-7.6-1.3
	l-11.4,25l3.8,6.3l-2.5,3.8l-10.2,1.3l-1.3-7.5l-3.8,2.5l-14-2.5l2.5,12.5l-6.4-2.5l-1.3,11.3l6.4,3.8l-3.8,8.8l1.3,8.8l12.7,10v10
	l5.1,3.8l-1.3,11.3l-5.1,2.5v10l7.6,5h11.4v10l8.9,6.3l3.8,8.8l15.3,1.3l8.9-2.5l2.5,6.3l11.4,1.3v5l17.8,2.5l5.1-5l6.4-3.8
	c0,0,15.3,6.3,11.4,1.3c-3.8-5-3.8-13.8-3.8-13.8l7.6,7.5l7.6-7.5v12.5l6.4,2.5l5.1,11.3l-5.1,12.5l-6.4,3.8l7.6,3.8l1.3,10
	l16.5,16.3l3.8-6.3l3.8,5v5l31.8,2.5l3.8,5l-1.3,8.8l14,7.5l12.7-2.5l6.4,10l17.8-2.5l38.1,8.8l10.2-5v-8.8l-10.2-11.3l-1.3-11.3
	l-14-11.3l2.5-5l-3.8-2.5h-6.4l-1.3-7.5h-11.4l-7.6-8.8l3.8-2.5l-12.7-7.5l-8.9-35l-5.1-12.5l-19.1-3.8l-8.9-20l-17.8-11.3
	l-2.5-17.5l-14-3.8l-5.1-5l-7.6-1.3l3.8-13.8h-12.7l-1.3-30l-10.2-17.5l-11.4-2.5l-3.8-10v-11.3l-21.6-3.8L196.5,211.3z"/>
<path id="path2176" class="st2" d="M403.7,476.6v-10l-16.5-11.3l3.8-6.3l-10.2-2.5v-5l-12.7-1.3l-10.2-8.8l6.4-1.3l-16.5-8.8
	l-10.2-46.3l-20.3-5l-8.9-20l-15.3-8.8l-5.1-20l12.7-12.5l-3.8-12.5l14-3.8l21.6,3.8l3.8-10l12.7,10l-1.3-15l12.7-12.5l5.1,10
	l15.3-22.5l19.1,12.5h8.9v8.8l14,5l5.1,11.3l20.3,12.5l2.5-5l15.3,7.5l3.8,3.8l-1.3,3.8l11.4,2.5l3.8,5l-11.4,5l10.2,3.8l3.8,5v8.8
	l-3.8,2.5v6.3l7.6,3.8l1.3,3.8l-5.1,3.8l-10.2,7.5l3.8,6.3l-6.4,3.8l-3.8-6.3l-7.6-2.5l-1.3,3.8l-10.2-1.3l-5.1,6.3l12.7,11.3
	L457,404l7.6,5l-8.9,11.3l-8.9,1.3l-8.9,10l-12.7,23.8v2.5l3.8,6.3l-6.4,2.5l14,10H403.7z"/>
<path id="path3151" class="st2" d="M485,345.2v-8.8l-11.4-10l11.4-1.3l-7.6-7.5h-8.9l-3.8-11.3l8.9-7.5v8.8l6.4,5l11.4-10l1.3-16.3
	l16.5-13.8l-1.3-5l-11.4-1.3v-8.8l-5.1,3.8l-12.7-17.5h-10.2l3.8-22.5h17.8l2.5,5l-1.3,6.3l7.6,7.5l2.5-5l6.4-2.5v-6.3l-6.4-1.3
	l-1.3-11.3l14-10h11.4v-6.3l-3.8-2.5l-1.3-10l-3.8,1.3l-2.5,5l-2.5,3.8l-5.1-2.5l5.1-8.8l-2.5-5l-2.5-5v-6.3h5.1l7.6-8.8l2.5-6.3
	l-1.3-7.5l3.8-3.8h11.4l7.6,6.3l-5.1,5l-1.3,6.3l-1.3,2.5l3.8,7.5l5.1-3.8h14l3.8,11.3l12.7,21.3l-5.1,2.5v7.5l7.6,2.5l6.4,18.8
	h12.7l-12.7,11.3l12.7,3.8l8.9,3.8v3.8l-6.4,6.3l-11.4,10l1.3,13.8l-6.4,8.8l5.1,8.8l5.1,8.8l-7.6,7.5v7.5l6.4,1.3l-2.5,10l11.4,8.8
	v32.5l-6.4,12.5l-1.3,20l-2.5,11.3l-3.8,3.8l-1.3,13.8l-6.4-3.8l-8.9-5v7.5l5.1,3.8l-11.4,8.8l-5.1-1.3v-5l-2.5,2.5l-10.2-1.3v-6.3
	l5.1-2.5l-5.1-1.3v-6.3l3.8-10l-15.3-3.8l8.9-3.8l-5.1-7.5v-5l-11.4-10H518l-2.5,6.3l-3.8-10l-15.3-7.5l-5.1-13.8l-6.4-6.3V345.2z"
	/>
<path id="path2177" class="st2" d="M380.8,496.6l21.6,7.5l10.2-5l2.5-8.8l-10.2-13.8l29.2,1.3l-11.4-11.3l8.9-1.3l-6.4-10l17.8-27.5
	l6.4-7.5l6.4,2.5l10.2-13.8l-8.9-5l1.3-11.3l-11.4-8.8l3.8-6.3l10.2-3.8l10.2,2.5l1.3,10l10.2-5l-6.4-8.8l15.3-8.8l10.2,13.8
	l8.9,6.3l5.1,11.3l3.8-7.5h7.6l10.2,8.8v5l6.4,6.3l-12.7,6.3l19.1,3.8l-3.8,3.8v11.3l2.5,2.5l-3.8,1.3v6.3l10.2,1.3l5.1-5v6.3
	l3.8,2.5v20l6.4,13.8l1.3,8.8l-8.9,12.5l-6.4-1.3l-8.9,7.5l-1.3,11.3l-8.9,12.5l-7.6,8.8v6.3l3.8,6.3l5.1,1.3l-6.4,3.8l-2.5,7.5
	l-2.5-5l-14-1.3l-11.4,3.8l-2.5,6.3h-6.4l-2.5-5l-19.1-3.8l-5.1-6.3l-3.8-1.3l-3.8,5l-6.4-3.8l-3.8-1.3l-2.5,5l-10.2-1.3l-3.8-12.5
	h-5.1l-3.8-3.8l-14-1.3l-5.1,6.3l-7.6-6.3v-3.8l-10.2-13.8h-3.8l-5.1-6.3l-2.5-6.3L380.8,496.6z"/>
<path id="path3152" class="st2" d="M316,623l-1.3-22.5l2.5-2.5l1.3-27.5l-7.6-7.5h-6.4l-2.5,5h-5.1l-5.1-10v-6.3l3.8-1.3l1.3-18.8
	l-7.6-1.3l3.8-2.5l-5.1-10l6.4-6.3l-1.3-8.8l2.5-17.5l15.3-5l5.1,1.3l11.4,8.8l14-2.5l6.4,8.8l17.8-2.5l14,5l-5.1,10l6.4,10l6.4,5
	l8.9,12.5l-1.3,3.8l11.4,7.5v5l-7.6,6.3l-5.1,2.5l5.1,7.5l-7.6,2.5l2.5,5l-7.6-3.8l-6.4,17.5h-5.1v10l3.8,3.8l-1.3,5l-6.4-1.3v-3.8
	h-14l-1.3-8.8l-8.9-3.8l-1.3,17.5h-3.8l1.3,5l7.6,5v3.8l-11.4,7.5L335,633l-6.4-5l-6.4,7.5v-5H316v5l-2.5-3.8h-8.9v-7.5L316,623z"/>
<path id="path2179" class="st2" d="M303.3,633v-8.8L316,623l-2.5-22.5l5.1-1.3l-1.3-26.3l-7.6-12.5h-2.5l-5.1,6.3l-6.4,1.3
	l-6.4-11.3v-5h5.1l3.8-20h-14l7.6-2.5l-7.6-10l5.1-6.3l-10.2-1.3H274l-16.5-10l-3.8,8.8l-8.9,6.3h-2.5l-6.4-7.5l-6.4,3.8l-15.3-8.8
	l-8.9-2.5l-2.5,5l-24.1-1.3l-6.4,12.5H166v-7.5l-3.8-3.8l-3.8,5l-5.1-6.3h-7.6l-6.4-5l-2.5,5l-8.9,3.8l0,0l-1.3,10l10.2,5v3.8
	l-8.9,3.8v17.5l2.5,3.8l-6.4-1.3l-1.3,11.3l6.4,5l-5.1,6.3l-6.4,3.8v7.5l-6.4,1.3v5h8.9l7.6,7.5l1.3,13.8h3.8v-5l1.3-5h5.1l8.9,8.8
	v5l-8.9,15l-6.4,2.5l-10.2,1.3l-1.3,3.8l-11.4-2.5l-3.8,7.5l8.9,5l5.1-2.5h15.3l-5.1,7.5l6.4,2.5l12.7,1.3l3.8,7.5l-6.4,1.3
	l-6.4-2.5h-5.1l-1.3,3.8l8.9,2.5l7.6,3.8l1.3,3.8l6.4,3.8l14,3.8v8.8l6.4,2.5l7.6-10l6.4,8.8l-1.3,13.8l5.1,5l1.3-2.5h6.4l7.6-3.8
	l17.8-12.5h5.1l1.3,5l8.9-1.3l0,0l6.4,7.5l2.5-2.5h8.9l7.6,8.8l1.3-2.5l7.6-1.3l3.8,5v12.5l6.4,5l6.4,1.3l14,1.3v7.5l2.5,2.5h5.1
	l1.3-3.8v5h7.6l2.5,7.5l5.1-6.3l3.8,1.3l8.9-7.5v-12.5l-3.8-2.5v-8.8l10.2-15l3.8-6.3l-1.3-11.3l2.5-10l-6.4,5l-14,1.3l1.3-11.3
	l-8.9-15h-2.5l-10.2,10l-3.8-1.3L302,673l-1.3-27.5l-5.1-2.5L303.3,633z"/>
<path id="path2180" class="st2" d="M150.8,676.8l-7.6-6.3l-8.9-2.5l1.3-5l17.8,3.8l-3.8-7.5H138l-11.4-5l6.4-7.5l-11.4-2.5l-5.1,5
	l-10.2-5l2.5-8.8l10.2,3.8l2.5-5l14,1.3l3.8-5l10.2-16.3l-12.7-12.5L133,613l-7.6,1.3l2.5-12.5l-7.6-8.8l-7.6-1.3l-3.8,8.8
	l-15.3-1.3l-2.5,10h-3.8l-1.3,5h8.9v6.3l-5.1,7.5l-2.5-7.5l0,0l-6.4,6.3l-2.5-6.3l-7.6-5l-3.8,7.5l3.8-12.5L58,601.7l1.3-7.5
	l-8.9-1.3l-1.3,3.8H38.9L28.7,603l-1.3,6.3l6.4,6.3l2.5,17.5l-22.9,15l2.5,10l-7.6-1.3l-3.8,3.8l-1.3,10l-1.3,8.8l-1.3,6.3l-6.4-1.3
	l-6.4,3.8l3.8,3.8l6.4,5l-1.3,5l14,8.8l-1.3,7.5l7.6,7.5l-3.8,11.3l5.1,10l6.4,7.5h8.9l7.6,7.5l5.1,6.3l8.9-1.3l31.8,10h12.7v-6.3
	h-1.3l-6.4-10v-17.5l-6.4-7.5v-11.3l15.3-7.5l10.2-1.3l0,0l14-8.8l-1.3-10h26.7l2.5-2.5l-5.1-3.8l-5.1,2.5l-8.9-5L150.8,676.8z"/>
<path id="path2184" class="st2" d="M302,670.5l-1.3-26.3l-5.1-3.8l10.2-8.8h7.6l3.8,8.8l1.3-8.8h3.8v7.5l8.9-11.3l6.4,6.3l15.3-12.5
	l-12.7-12.5l6.4,2.5l1.3-18.8l7.6,3.8l1.3,7.5l14,1.3v5h10.2l-1.3-7.5l-6.4-3.8v-7.5l6.4,1.3l7.6-20l8.9,5l-3.8-7.5h8.9l-6.4-8.8
	l12.7-7.5l1.3-8.8l-5.1-1.3l5.1-5l14,2.5l8.9,5l2.5,11.3l11.4,2.5l2.5-6.3l11.4,6.3l3.8-7.5l10.2,10l15.3,2.5l6.4,6.3h5.1l3.8-8.8
	l21.6-2.5l3.8,6.3l3.8,1.3l-3.8,10h5.1l2.5,8.8l-5.1,7.5l5.1,3.8l-2.5,6.3l5.1,7.5l1.3,8.8l-6.4,1.3V633l10.2,11.3h8.9l3.8,6.3
	l-2.5,3.8h-17.8l-2.5,3.8v7.5H532v8.8l-12.7,17.5l-8.9-8.8l-6.4,3.8l-5.1-5v6.3l-5.1,5l-1.3,10l5.1,2.5l-2.5,6.3l1.3,2.5l7.6-1.3
	l7.6,6.3l-5.1,6.3l8.9,5l-5.1,6.3h-7.6l-1.3,5l-7.6-2.5l-5.1-7.5l-1.3,6.3h-7.6l-3.8-5l-10.2,5l-8.9,1.3l-10.2-6.3l-25.4,1.3v-6.3
	l-6.4-8.8h-3.8l-7.6-7.5l-10.2-1.3l-5.1,3.8l2.5,10l-1.3,3.8l-14-11.3v-5l5.1-3.8l-2.5-6.3l-7.6,6.3l-3.8-3.8l-6.4,13.8l-8.9-17.5
	l6.4-7.5l-1.3-18.8l-6.4,6.3l-12.7-1.3l1.3-6.3l-11.4-18.8l-8.9,10l-3.8-5L302,670.5z"/>
<path id="path3179" class="st2" d="M268.9,894.5v-6.3l12.7-1.3l-2.5-6.3l-16.5-2.5l5.1-5l-5.1-2.5l7.6-3.8l-5.1-7.5l20.3-7.5
	l-6.4-10v-7.5l-12.7,1.3l-5.1-12.5l16.5-11.3l-2.5-40l12.7-8.8l-8.9-8.8h-7.6l11.4-7.5l12.7,2.5l5.1-10l-1.3-5h8.9l-1.3,6.3l7.6,6.3
	l10.2,1.3l8.9,1.3l11.4-7.5l1.3-13.8h-5.1v-11.3l10.2-12.5l8.9,15l5.1-12.5l5.1,2.5l7.6-7.5l3.8,5l-7.6,8.8l15.3,11.3l1.3-5
	l-5.1-6.3l6.4-6.3l11.4,2.5l7.6,6.3l7.6,6.3l3.8,8.8l3.8,3.8l-21.6,28.8l-12.7,15l7.6,3.8l2.5,7.5l6.4,3.8l1.3,23.8l-10.2,10v6.3
	l-6.4-1.3L382.1,857l-8.9,5h-7.6l-3.8,8.8l-11.4,8.8l-22.9,5l-5.1-5l-3.8-1.3l-5.1,8.8v8.8l-15.3-1.3l-12.7-3.8l-5.1,6.3
	L268.9,894.5z"/>
<path id="path4248" class="st2" d="M408.7,815.7v-18.8l-6.4-5v-5l-8.9-7.5l34.3-41.3l-2.5-5h22.9l8.9,7.5h8.9l11.4-6.3l10.2,5
	l2.5-8.8l5.1,10l8.9,2.5v-6.3h6.4l6.4-5l-10.2-6.3l5.1-5l-8.9-7.5l-7.6,1.3l-2.5-1.3l6.4-6.3l-6.4-3.8l3.8-13.8v-8.8l6.4,6.3
	l7.6-2.5l7.6,7.5l16.5-17.5l-2.5-7.5l2.5-12.5l15.3,1.3l5.1,6.3l3.8,3.8l2.5-5h3.8l6.4,6.3l3.8,1.3l1.3,7.5l-7.6,1.3l-1.3,3.8
	l7.6,6.3v18.8l-2.5,10h-7.6l6.4,7.5l1.3,8.8l-6.4,3.8l-1.3,7.5l-5.1-1.3l-6.4,7.5l6.4,8.8v10l-8.9,6.3l-3.8,6.3l17.8,18.8l-7.6,7.5
	l1.3,5l8.9,6.3l6.4,10l-2.5,36.3l3.8,5l-3.8,3.8v5l3.8,1.3l5.1,5v3.8l3.8,3.8l-1.3,15l-8.9,17.5l-16.5,6.3h-8.9l-10.2-12.5
	l-15.3-11.3h-11.4l-16.5-13.8l-12.7-2.5l-1.3-6.3l6.4-2.5l1.3-8.8l-5.1-2.5l3.8-2.5v-5l-5.1-6.3l-3.8,2.5l-11.4,2.5l-3.8-2.5v-8.8
	l5.1-2.5c0,0,0-7.5-5.1-7.5c-5.1,0-6.4,0-6.4,0l-3.8,6.3h-2.5l-2.5-7.5v-10l-11.4-7.5l-10.2-2.5L408.7,815.7z"/>
<path id="path5240" class="st4" d="M313.4,897v-8.8l5.1-8.8l6.4,6.3l25.4-5l12.7-10l2.5-10l7.6,2.5l11.4-6.3l7.6-22.5l7.6,3.8
	l1.3-10l10.2-10l26.7,6.3l8.9,3.8v12.5l3.8,7.5l8.9-5l7.6,2.5l-5.1,3.8v10l5.1,3.8h11.4l5.1-6.3l5.1,8.8l-7.6,6.3h6.4v7.5l-7.6,3.8
	l2.5,8.8l11.4,1.3l16.5,13.8l11.4-1.3l16.5,13.8l8.9,12.5l-12.7,2.5v7.5l-5.1,1.3l1.3,11.3l6.4,7.5l10.2-2.5l5.1,15h-5.1l-10.2-11.3
	l3.8,15l15.3,2.5l11.4,7.5l-11.4,3.8l-6.4,3.8l-15.3-1.3l-15.3-6.3l-17.8,5l-11.4,5l-30.5-18.8l-5.1-12.5l-15.3-16.3h-6.4l5.1,12.5
	l-6.4,7.5l-14-2.5l-8.9-12.5L396,942.1l-5.1-2.5h-17.8l-7.6-5h-14l-7.6-1.3l-10.2,8.8v-6.3l-10.2-3.8l-5.1-10l2.5-16.3L313.4,897
	L313.4,897z"/>
<path id="path4161" class="st1" d="M552.4,1015.9L552.4,1015.9z"/>
<path id="path3188" class="st2" d="M209.2,873.3h14l12.7,11.3l17.8,10l14,1.3l14,2.5l5.1-8.8l10.2,6.3h16.5l7.6,13.8l-2.5,11.3
	l3.8,11.3l5.1,1.3l6.4,1.3v7.5l11.4,5l3.8,10l5.1-6.3l6.4,3.8l7.6,8.8l17.8-1.3l-12.7-11.3l15.3-3.8l14,10l-10.2,3.8l1.3,7.5
	l11.4,8.8l7.6,5l7.6-1.3l5.1,2.5l-1.3,11.3l-1.3,17.5l-8.9,10l2.5,6.3h-8.9l-15.3-10l-3.8-1.3l-2.5,7.5h-11.4l-6.4,8.8l-7.6-2.5
	l-10.2,8.8l-1.3-11.3h-7.6l1.3-7.5l-8.9-2.5l-1.3,5l6.4,8.8l-8.9,2.5l-0.7,8.5l-9.4,4v-16.3l-1.3-11.3l-5.1-6.3l-5.1,3.8l-6.4,8.8
	l-6.4-15l-10.2-2.5l6.4-7.5l-11.4-2.5l-8.9-6.3l5.1-5v-5l-7.6,1.3l-5.1-3.8l8.9-5l-3.8-10l-5.1-6.3l-8.9,5l-3.8-12.5l-3.8-5h-3.8v10
	l-14-15h7.6l5.1-2.5l-7.6-7.5l-6.4,1.3l-3.8,2.5l-1.3-7.5l8.9-2.5l-11.4-6.3l7.6-3.8L213,903.3L209.2,873.3z"/>
<path id="path4163" class="st2" d="M422.7,999.7v-16.3l-6.4-5l7.6-3.8l17.8,1.3l10.2,1.3l6.4,7.5v8.8l2.5,8.8l19.1,11.3l-5.1-13.8
	l10.2-1.3l2.5,6.3l6.4,3.8l17.8-11.3l6.4,3.8l-1.3,6.3l6.4,7.5v-10l28-1.3l14,2.5l8.9,11.3l1.3,13.8l-11.4-8.8l-8.9-11.3h-30.5
	l-1.3,5h25.4l12.7,8.8l16.5,12.5l6.4,5l5.1,2.5l-6.4,2.5l-1.3,6.3h-12.7l-1.3,6.3l-8.9-2.5v17.5l10.2,6.3l-2.5,6.3h-8.9l-2.5-6.3
	l-2.5,6.3l-12.7-1.3l-2.5-15l-15.3,13.8h-6.4l-2.5-11.3h-5.1l-2.5,5l-12.7-6.3l-2.5,5l7.6,5l-7.6,3.8l-5.1-1.3v-6.3l-10.2-1.3
	l-5.1-13.8l-12.7-8.8l-1.3-7.5L438,1046l-2.5,3.8l-15.3-13.8l-2.5-7.5l-3.8-7.5l8.9-8.8V999.7z"/>
<path id="path5134" class="st2" d="M228.3,942.1l15.3,16.3l1.3-12.5l7.6,7.5v7.5l3.8,5l7.6-7.5l8.9,13.8l-11.4,7.5l7.6,6.3l7.6-2.5
	l2.5,5l-8.9,3.8v2.5l-1.3,7.5l-6.4-3.8l-5.1,7.5l1.3,11.3l-11.4,1.3l0.3,23.8l-10.5,10.9l-9.8,1.6l-6.7,5l-5.1-1.3l-16.5,13.8
	l-2.5,3.8l-18.4,0.9l1.9-13.5l-8.9-2.5l-2.5-5l6.4-3.8l2.5-8.8l-6.4-2.5l1.3-13.8l6.4-6.3l-8.9-12.5l6.4,2.5l7.6-7.5v-2.5l-3.8-3.8
	l1.3-13.8l-2.5-2.5l7.6-3.8l6.4,2.5v7.5l4.4-5.5l7.7-0.4l13.3-14.1l8.3-0.9l2.9-7.5l-2.2-10.3L228.3,942.1z"/>
<path id="path6105" class="st2" d="M194,1076l21.6-16.3l6.4,1.3l5.1-6.3l10.6-2.3l8.8-10.4l0.9-23.6l10.1-1.4l-2.5-11.1l7.6-6.3
	l6.4,5l2.6-11.3l6.3,6.3l14.7,1.3l-8.3,7.5l10.2,3.8l2.7,5.8l7.5,9.2l2.5-6.3l6.4-6.3l5.1,6.3l1.4,28.4l-0.2,16.6l-3.8,13.8
	l-3.3,4.4l-8.2,1.9v3.8l5.1,3.8l-1.3,6.3l-14-2.5l-7.6,2.5l6,1.4l4.2,8.6l-1.3,17.5l-6.4,2.5l7.4,4.2l2.8,5.8l-13.7,10.5l-11.7,0.4
	l-1.3,11.6h-8.9l-7.3-5.7l-8,3.2h-11.4l-3.8-3.8v-15l3.8-11.3l7.6,2.5l-1-8.3l3-7.4l-3.3-3.3l-6.4-1l5.5,5.4l-9.3,7.1l-5.1-5l1.3-5
	l-4.4-4l-9.6-4.8l-16.5-12.5l3.8-8.8L194,1076z"/>
<path id="path7082" class="st4" d="M234.6,1157.3l15.3,3.8l7.6-5l5.1,6.3l10.2,1.3l1.3-13.8l8.9,1.3l16.5-10l-1.3-6.3l-10.2-6.3
	l5.1-2.5l2.5-17.5l-3.8-6.3l-6.4-3.8l7.6-3.8l15.3,6.3l1.3-6.3l-5.1-6.3l-1.3-3.8h7.6l10.2-17.5l-1.3-20l8.9-3.8l3.8-8.8h6.4v-5
	l-6.4-7.5l1.3-5l7.6,3.8v6.3l7.6,2.5l1.3,7.5h5.1l5.1-7.5l8.9,3.8l6.4-8.8h11.4l3.8-7.5l15.3,10.7l10.2,1.8l1.3,5l17.8,15l1.3,7.5
	l-2.5,3.8h-3.8l-2.5,5l3.8,3.8l1.3,5l-3.8,1.3v7.5l5.1,2.5l-1.3,2.5h-6.4l-6.4,10l1.3,13.8l-1.3,13.8l-3.8,6.3l-5.1,5l-6.4-1.3
	l-7.6,15l-1.3,8.8l5.1,1.3l-5.1,3.8v6.3l-6.4,6.3l-5.1-5l-2.5,3.8l3.8,10l-8.9,3.8l-21.6,3.8l-6.4-15h-10.2l-5.1-11.3l7.6-5l-12.7-5
	l-5.1-3.8l-3.8,3.8l7.6,10h-12.7l-10.2,5l7.6,7.5l7.6,3.8l-10.2,1.3l-16.5-5l-3.8,1.3l7.6,5l-3.8,8.8l-3.8,6.3l-1.3,6.3h-21.6
	l-12.7-6.3v8.8l-12.7-1.3l-2.5-6.3l-10.2-1.3l-6.4-3.8v-6.3l-7.6-5v-6.3l2.5-5l10.2-2.5l-1.3-6.3L234.6,1157.3L234.6,1157.3z"/>
<path id="path8053" class="st4" d="M402.4,1162.3l-6.4-3.8v-6.3l8.9-15l6.4,1.3l10.2-12.5v-15l-1.3-12.5l3.8-10h8.9l2.5-3.8
	l-6.4-1.3v-8.8h3.8v-5l-5.1-5l1.3-5l6.4,2.5l2.5-5l-1.3-7.5l1.3-3.8l16.5,1.3l2.5,6.3l12.7,10l3.8,12.5l5.1,6.3v8.8l5.1,6.3l5.1,2.5
	v5h-6.4l-5.1,3.8l1.3,3.8h19.1l10.2,6.3l2.5,8.8h3.8v13.8l8.9,13.8l2.5,7.5l-11.4-7.5l-5.1,5l6.4,2.5v16.3h-15.3l-6.4,11.3l-6.4,2.5
	l-8.9-11.3l-5.1,2.5l-7.6,10l-5.1,2.5h-2.5l-6.4-7.5l-3.8,1.3l-7.6-8.8h-1.3l-2.5,2.5h-6.4l-6.4-5l-1.3-7.5l-7.6,1.3L402.4,1162.3
	L402.4,1162.3z"/>
<path id="path2204" class="st4" d="M286.7,1204.9l10.2-17.5l-10.2-8.8h7.6l12.7,6.3h14l-16.5-12.5l6.4-5l17.8,1.3l-8.9-10l3.8-6.3
	l2.5,5l15.3,5l-6.4,5l3.8,10l11.4,1.3l5.1,15l15.3-2.5l16.5-3.8l-5.1-10l1.3-5l6.4,5l7.6-6.3l-2.5-7.5l5.1-2.5l16.5,11.3l6.4-1.3
	l1.3,6.3l7.6,7.5l6.4,1.3l3.8-5l6.4,8.8l11.4,3.8l-3.8,6.3l6.4,3.8l-3.8,3.8l1.3,15l-3.8,5l2.5,11.3l-11.4,1.3v3.8l6.4,2.5l1.3,5
	l-3.8,1.3l1.3,8.8l11.4-7.5h3.8l-1.3,12.5l7.6,2.5v2.5H485l2.5,3.8l-2.5,8.8l7.6,12.5c0,0,6.4,8.8,1.3,8.8c-5.1,0-7.6,0-7.6,0
	l-8.9-2.5l-3.8-3.8l-6.4-15l-3.8-3.8l-8.9,6.3l2.5,8.8l-7.6,11.3l-16.5,7.5l-1.3,6.3l5.1,6.3l-1.3,16.3l-1.3,5l-14-6.3v-6.3
	l-5.1-1.3l-1.3,3.8l-11.4,10l-7.6-1.3l-11.4,6.3h-7.6l0,0l-8.9-6.3l-1.3,1.3l-5.1-3.8l-1.3-6.3l7.6-1.3l-8.9-11.3l7.6,1.3l1.3-3.8
	l-5.1-8.8l-10.2-6.3l-1.3,7.5h-19.7l-8.3-6.3l-6.4-3.8l0,0l5.1,11.9l-5.1,5l-19.1-2.5l-5.1-5.6l-6.4,3.8h-5.1l3.8-7.5l-15.3-6.3
	l2.5-22.5l7.6-2.5l-3.8-6.3v-6.3l-5.1-3.8l10.2-16.3l12.7-5l-1.3-10l12.7-8.8l5.1,3.8l3.8-7.5l-5.1-2.5l-1.3-6.3l-11.4,8.8l-6.4-3.8
	L286.7,1204.9L286.7,1204.9z"/>
<path id="path2205" class="st4" d="M459.6,1204.9l-6.4-8.8l10.2-1.3l10.2-10l3.8-3.8l7.6,11.3l8.9-3.8l6.4-8.8h14l3.8,10h10.2
	l1.3,2.5l-8.9,10l3.8,7.5h14l6.4,7.5v5l-3.8,6.3l3.8,1.3l8.9-6.3l10.2,1.3l-1.3,8.8l-3.8,8.8l-5.1,10h-6.4l-10.2-2.5l16.5,13.8
	l5.1,7.5l5.1,12.5l14,8.8v6.3l-3.8,1.3l-11.4,2.5l-29.2-11.3l-10.2,11.3l-16.5-8.8l-5.1,7.5h-3.8l-14-16.3l5.1-7.5l-3.8-7.5
	l-12.7-1.3l-6.4-6.3l2.5-10l-5.1-1.3l-11.4,11.3l2.5-10l-1.3-7.5l-7.6-2.5l14-2.5l-2.5-11.3l5.1-5L459.6,1204.9L459.6,1204.9z"/>
<path id="path2206" class="st4" d="M313.4,1303.7l8.9,11.3l-6.4,7.5l-7.6-5l-10.2,1.3l-5.1-5l-11.4,6.3l2.5,10l7.6,8.8l3.8-6.3
	l5.1,2.5l-1.3,6.3l5.1,2.5l-1.3,7.5l-7.6,7.5l5.1,5l-5.1,1.3l-1.3,11.3l-7.6-3.8l2.5,11.3l10.2,13.8l-11.4,21.3l12.7,8.8l-2.5,7.5
	l-2.5,10l11.4,8.8l-2.5,11.3l7.6,12.5l1.3,13.8l5.1,3.8l-11.4,3.8l1.3,7.5l5.1,3.8l-5.1,21.3l12.7,1.3l2.5,10l-10.2-2.5v6.3l7.6,8.8
	l7.6,1.3v11.3l8.9,7.5l1.3,16.3l11.4-2.5l-8.9,12.5h-11.4l-1.3,10l3.8,12.5l11.4,20l-3.8,2.5l-1.3,30l8.9,11.3l1.3,16.3l1.3,8.8
	l15.3,7.5l11.4-5l7.6,15l-2.5,6.3l7.6,7.5l-5.1,11.3l-11.4,12.5l15.3,6.3l15.3-3.8l-2.5-6.3h8.9l1.3-7.5l-6.4-3.8l5.1-7.5v-25
	l-5.1-2.5l10.8-8.8l8.3-23.8l7.6-7.5l-3.8-11.3l-10.2-18.8l-10.2-20l-3.8-8.8l8.9-8.8H391l12.7-17.5l6.4-13.8l5.1-31.3l-12.7-20
	v-6.3l7.6-6.3l-12.7-8.8l1.3-23.8l11.4-6.3l-11.4-21.3l1.3-28.8l7.6-8.8l6.4,11.3l7.6-10l-2.5-6.3l-7.6-1.3l-5.1-5l5.1-10l2.5,5
	l6.4,2.5l2.5-8.8l6.4-3.8l-1.3-6.3l-11.4-18.8l-12.7-6.3l-6.4-11.3l-2.5-3.8l-10.2,7.5l-8.9,1.3l-7.6-7.5l-3.8,2.5l-5.1-11.3
	l7.6-2.5l-11.4-11.3l10.2,2.5l-5.1-15l-7.6-5l-1.3,8.8h-20.3L313.4,1303.7L313.4,1303.7z"/>
<path id="path2208" class="st4" d="M335,1670.4l-11.4,5l2.5,10l7.6,11.3l-6.4,21.3l1.3,7.5l10.2,2.5l11.4,16.3l10.2,1.3l3.8-7.5
	l-1.3-7.5l-5.1-6.3l-8.9-1.3l-8.9-7.5l1.3-21.3L335,1670.4L335,1670.4z"/>
<path id="path3186" class="st4" d="M427.2,1393.2l-4.4,1.9l-1.9,9.4l-6.4-3.1l-2.5-6.9l-7,11.3l5.1,5.6l8.3,0.6l3.2,7.5l-7.6,10
	l-6.4-10.6l-8.3,7.5l-0.6,26.9l12.1,23.8l-12.1,6.3l-1.3,23.2l12.1,9.4l-7,4.4l-0.6,6.9l13.3,21.3l-5.7,30l-17.8,31.9l21-0.6
	l-8.3,8.8l22.2,46.9l5.1,12.5l8.3,2.5l0.6,8.1l-13.3,2.5l-10.2,16.9l5.7,5l3.8,11.3h5.7l1.9,10l3.8,12.5l15.9,1.3l9.5-14.4l5.1-3.1
	l5.1-9.4l-2.5-5.6l-3.2-7.5l-12.1-7.5l9.5-5l17.2-17.5l1.3-13.8l0.6-15.6h5.1l8.9-32.5l0.6-25.7l-5.7-23.8l17.2-16.9l3.8-8.1
	l5.7-1.3l7.6-12.5v-15.6l-11.4-33.2l-6.4-3.1v-15l-8.9-18.8l-2.5-21.3l5.1-11.9l10.2-10l6.4-21.9l5.1-4.4l4.4,3.1l9.5-9.4l4.4-8.8
	l-1.9-10l-3.8-3.8v-8.1l13.3-0.6l8.3-6.9l5.1-26.3l-29.2-10l-12.7,11.3l-14.6-8.8l-6.4,8.1l-6.4,3.8l-14.6-1.9l-5.7-3.8l-10.2-19.4
	l-9.5,3.8l3.2,10l-9.5,11.3l-15.9,7.5l-1.9,5l5.1,5.6l-1.3,24.4l-14.6-6.9l1.3-6.3l-5.7-2.5l-0.6,4.4l-11.4,10l-8.3-1.3l8.9,15
	l12.7,5.6l9.5,16.3L427.2,1393.2L427.2,1393.2z"/>
<path id="path4157" class="st4" d="M415.1,1723l-2.5,22.5l14,8.8l3.8-13.8L415.1,1723L415.1,1723z"/>
<path id="path5128" class="st4" d="M475.2,1076.7l8.1,1.8l0.9,6.2l5.4,2.7l8.1-4.4l-9-5.3l3.6-4.4l13.5,5.3l1.8-5.3l4.5,0.9
	l2.7,10.6l7.2,0.9l14.4-14.2l2.7,15l12.6,1.8l2.7-7.1l3.6,6.2l8.1,0.9l3.6-6.2l-10.8-5.3v-20.4l9,3.5l1.8-6.2h12.6l0.9-6.2h2.7
	l7.2,1.8l2.7,7.1l26.1,5.3l9,10.6h7.2l4.5,10.6l27.9,4.4l16.2,11.5l8.1,14.2l0.9,16.8h-7.2l-0.9,13.3l-7.2,6.2l9.9,6.2l-4.5,11.5
	l-5.4,16.8l-6.3-2.7l-9.9-6.2l-4.5,12.4l-4.5-0.9l-0.9-6.2h-5.4l-6.3-9.7l-8.1-0.9l6.3,8l-7.2,0.9l-9.9,6.2l-0.9-9.7h-8.1l-5.4,4.4
	l-4.5-7.1l-8.1-0.9l-15.3,15l-20.7,0.9l-1.8,5.3l8.1,4.4l-0.9,4.4l-2.7,4.4l-11.7,9.7h-9l-4.5-5.3h-13.5l-4.5-8l9-9.7l-11.7-2.7
	l-2.7-9.7v-16.8l-6.3-4.4l5.4-5.3l14.4,10.6l-5.4-9.7l-9.9-15l0.9-12.4h-2.7l-4.5-8l-7.2-6.2l-21.6-0.9l-0.9-3.5l5.4-4.4h6.3
	l0.9-3.5l-9.9-8.8L475.2,1076.7L475.2,1076.7z"/>
<path id="path6099" class="st4" d="M577.7,1298.8l0.9-5.3l-12.6-7.1l-6.3-15.9l-18-17.7l12.6,0.9l7.2-17.7l1.8-9.7l-9-3.5l-10.8,8
	l-1.8-1.8l2.7-8v-4.4h5.4l16.2-10.6l1.8-8l-9-5.3l1.8-6.2l17.1,0.9l17.1-14.2l8.1,0.9l6.3,5.3l5.4-4.4l6.3,0.9l1.8,9.7l8.1-5.3
	l9.9-0.9l-5.4-9.7l5.4,0.9l7.2,10.6h4.5l2.7,7.1h3.6l3.6,13.3l-4.5,15l-11.7,6.2c0,0,3.6,8,0,8s-11.7,0-11.7,0l-5.4,19.5l10.8,6.2
	l4.5-8l6.3-3.5l11.7,7.1l4.5,4.4l9.9-8.8l11.7,6.2l-4.5,3.5l-0.9,8.8l11.7,3.5l-4.5,1.8v11.5h-9.9l-3.6,8l-10.8,4.4v8l-3.6,0.9v4.4
	l-7.2,5.3l-3.6,14.2l-3.6,5.3l-0.9,3.5l-9,1.8h-12.6l-1.8,9.7h-2.7l-9.9-6.2l-14.4,0.9L584,1336l-1.8-6.2l8.1-7.1l-13.5-8.8
	L577.7,1298.8L577.7,1298.8z"/>
<path id="path7070" class="st4" d="M563.3,1303.3l14.4-5.3l-1.8,15.9l14.4,5.3l-9,8.8l1.8,8.8l12.6,8.8l16.2-5.3l10.8,12.4l1.8,24.8
	l-12.6,5.3l-7.2,3.5l-1.8,12.4h18l3.6,3.5v19.5l7.2,17.7l-5.4,8.8l7.2,23l-14.4-7.1l-10.8-5.3l-3.6,3.5l19.8,14.2v5.3H619l-9,10.6
	v23l-10.8,17.7l-3.6,10.6l-1.8,21.2l10.8,15.9l3.6,19.5l-14.4,19.5l5.4,12.4l-1.8,23l7.2,19.5v10.6h-7.2v10.6l-25.2,15.9l-9-7.1
	l-21.6-1.8l-12.6,3.5l23.4,17.7l-5.4,10.6h-19.8l-14.4-3.5l9,17.7l-12.6,3.5l-14.4-5.3l5.4-12.4l-10.8-15.9V1705l-1.8-14.2l3.6-28.3
	l-3.6-15.9l9-24.8l1.8-30.1l-7.2-26.5l21.6-17.7l12.6-8.8l3.6-28.3l-14.4-28.3l-5.4-5.3v-12.4l-9-17.7l-3.6-23l16.2-26.5l7.2-21.2
	H531l12.6-14.2v-12.4l-7.2-5.3v-10.6l19.8,1.8l5.4-14.2L563.3,1303.3L563.3,1303.3z"/>
<path id="path8041" class="st4" d="M529.5,541.7l17.8-18.8l-1.3-11.3l8.9-10l8.9,1.3l7.6-10l-1.3-12.5l-6.4-11.3v-21.3l12.7-8.8
	l-6.4-3.8v-8.8l14,10l-3.8,20l7.6,7.5l-1.3,10l8.9,6.3h8.9l6.4-8.8l11.4,2.5l7.6-1.3v18.8l-2.5,2.5l-7.6-5l-3.8,17.5l-7.6,7.5
	l3.8,8.8l10.2-1.3l-1.3,6.3l-5.1,6.3l-1.3,10l11.4,8.8l-1.3,7.5l-8.9,5l1.3,5h-6.4v6.3l6.4,12.5l1.3,7.5l7.6-1.3l6.4,7.5l-2.5,7.5
	l8.9,3.8l29.2,7.5l2.5,8.8l16.5-13.8l24.1,11.3l-1.3,15l-11.4,12.5l-8.9-1.3h-20.3l-11.4,2.5l-19.1,22.5l-6.4-8.8l-2.5-3.8L621,663
	v7.5l-10.2,6.3l-5.1-3.8l-3.8,7.5l3.8,7.5l7.6,5l-2.5,5l-3.8-1.3l-5.1,11.3h-6.4v8.8l-7.6,2.5v13.8l-6.4,2.5l-10.2-1.3v-11.3
	l-7.6-6.3l10.2-1.3l3.8-26.3l-10.2-11.3l7.6-1.3l1.3-8.8l-11.4-7.5l-5.1-1.3l-2.5,5l-7.6-8.8h3.8l2.5-6.3l-1.3-6.3l-8.9,1.3
	L535.8,633l-1.3-10l6.4-1.3l-1.3-11.3l-5.1-6.3l1.3-6.3l-5.1-5l5.1-5v-11.3h-8.9l7.6-8.8l-6.4-3.8l3.8-8.8L529.5,541.7L529.5,541.7z
	"/>
<path id="path2215" class="st4" d="M574,924.6l10.2-16.3l-1.3-15l-5.1-11.3l-7.6-2.5v-5l3.8-3.8l-3.8-5l2.5-15l1.3-22.5l-17.8-18.8
	l8.9-11.3l-17.8-16.3l11.4-12.5l2.5-15l-8.9-7.5l8.9-6.3l3.8,2.5l6.4-10l11.4,3.8l1.3-6.3l5.1-8.8l3.8-6.3l2.5-6.3l5.1-3.8l6.4-8.8
	l6.4,1.3v-5l-8.9-7.5l-1.3-6.3l1.3-6.3l3.8,5l12.7-7.5l1.3-7.5l7.6,3.8l10.2,13.8l15.3-22.5l12.7-5l7.6,3.8l1.3,11.3h11.4v21.3
	l10.2,15v6.3l-6.4,8.8l-1.3,7.5l8.9,20l26.7,16.3l-6.4,2.5l-3.8,8.8l11.4,20l1.3,8.8l-3.8,6.3l8.9,22.5l8.9,3.8l6.4,2.5l2.5,3.8
	l-10.2,5v11.3l-7.6,2.5l-6.4,5l-5.1,13.8l1.3,18.8l-8.9,1.3l-5.1-5l-1.3,6.3h-3.8l1.3,8.8l-14,13.8l-10.2,6.3h-3.8l-11.4-7.5
	l-7.6,7.5h-3.8l-7.6-5v8.8l-6.4,6.3l-2.5-10l-5.1-2.5l-11.4,12.5l-7.6,2.5l-6.4,6.3l-3.8-7.5l-5.1,8.8h-7.6l-7.6-6.3l-2.5,3.8
	l-5.1-7.5L574,924.6L574,924.6z"/>
<path id="path3189" class="st4" d="M572.7,925.8l-20.3,6.3l-12.7,1.3l1.3,12.5l11.4,13.8l15.3,13.8l1.3,7.5l5.1,6.3l-1.3,12.5
	l14,18.8l15.3,10l15.3,3.8l6.4,7.5h-14l10.2,10l6.4-3.8l6.4,12.5l22.9,6.3l7.6-6.3v-13.8l16.5-2.5l11.4-5l29.2,5l-7.6-21.3
	l12.7-13.8l-25.4-5l-8.9-11.3l-6.4-13.8l-8.9-5l-6.4-16.3l-12.7-6.3l10.2-8.8l-24.1-1.3l-2.5-10l-6.4-2.5L621,939.6l-3.8-2.5
	l-8.9,10l-3.8-6.3l-5.1,11.3l-7.6-2.5l-6.4-5l-3.8,5l-5.1-7.5L572.7,925.8L572.7,925.8z"/>
<path id="path4160" class="st4" d="M655.3,1064.7l6.4-7.5v-12.5l21.6-2.5l7.6-5l28,6.3l-6.4-22.5l12.7-11.3l-21.6-6.3l-6.4-1.3
	l-12.7-23.8l-10.2-5l-3.8-16.3l-14-8.8l10.2-7.5l-21.6-2.5l1.3-6.3v-7.5l10.2,7.5l11.4-8.8l15.3,7.5l11.4-5l7.6,12.5l10.2-5
	l10.2-2.5l3.8,6.3l6.4-18.8l11.4,17.5l-10.2,8.8l8.9,2.5l19.1,2.5l1.3,23.8l10.2-2.5l6.4,6.3h8.9l6.4-5h6.4l1.3,10v8.8l-2.5,7.5
	l11.4,32.5l5.1,5l-5.1,2.5l-21.6,10l8.9,15l-3.8,13.8l-11.4-10l-3.8,6.3l-3.8,16.3l-8.9-2.5l5.1-15l-11.4-6.3l-6.4-7.5l-19.1-3.8
	l-7.6,11.3l-1.3,6.3l-1.3,17.5l-6.4,7.5l-8.9-5l-1.3,10l-3.8,6.3l-12.7-6.3l-1.3-11.3l-3.8-12.5l-10.2-6.3L655.3,1064.7
	L655.3,1064.7z"/>
<path id="path5131" class="st4" d="M791.6,1280.3l-18,5.3l-10.8,7.1l-3.6,8.8l-12.3-9.2l-9.3-12.1l5.4-10.6l7.2-10.6l-10.8-10.6
	l-9-15.9l-12.6-8.8l-5.4-23l16.2-12.4l12.6-23l10.8-15.9l18,1.8l16.2,12.4l7.2,12.4h14.4h12.6l5.4,12.4l1.8,12.4l5.4,19.5l-7.2,15.9
	l-10.6,8l6.9,10.7l-23.3,6L791.6,1280.3L791.6,1280.3z"/>
<path id="path6102" class="st4" d="M688.3,1128.5l16.5,1.3l10.2,8.8l11.4,5l25.4,7.5l-5.1,8.8l-17.8,28.8l-16.5,11.3l3.8,22.5
	l15.3,11.3l7.6,17.5l12.7,8.8l-14,18.8l10.2,8.8l3.8,7.5l-6.4,5h-14l-15.3-3.8l1.3-16.3l1.3-15l-6.4-2.5l-3.8,6.3h-16.5l-10.2-6.3
	v-5l6.4-2.5l-11.4-7.5l-10.2,8.8l-12.7-10h-7.6l-7.6,10l-11.4-7.5l7.6-18.8l15.3,1.3l-2.5-7.5l11.4-6.3l3.8-16.3l-6.4-11.3l6.4-12.5
	l17.8,7.5l6.4-26.3l-5.1-10l6.4-5L688.3,1128.5L688.3,1128.5z"/>
<path id="path7073" class="st4" d="M812.9,1258.7l-10.2,1.5l-6.4,11.8l5.1,10.3l14-1.5l10.2,11.8l5.1-7.3l-2.5-13.2l-5.1-8.8
	L812.9,1258.7L812.9,1258.7z"/>
<path id="path2229" class="st4" d="M685.8,928.3l20.3-17.5l-2.5-10h5.1v-7.5l7.6,7.5l7.6-1.3l-1.3-21.3l3.8-13.8l17.8-7.5l-2.5-11.3
	l11.4-5l-3.8-3.8l7.6-2.5l8.9-1.3l3.8-7.5l7.6,8.8l7.6-1.3l5.1,3.8l3.8-21.3l12.7-1.3l3.8,5l15.3,6.3v6.3l10.2,10h11.4l2.5-3.8h10.2
	l14,8.8l7.6,3.8l-7.6,5l1.3,11.3l5.1,10l-3.8,8.8l-1.3,7.5l7.6,7.5l-14,2.5l-5.1-5l-3.8,3.8l5.1,2.5l2.5,23.8l-6.4,15l-6.4,1.3
	l3.8,6.3l-7.6,12.5l-10.2,7.5l-6.4-5l-12.7-15l-1.3,6.3l-7.6-1.3l-10.2,21.3l-6.4-5l-5.1,3.8l-10.2,2.5l-7.6-7.5l-10.2,2.5v-25
	h-17.8l-10.2-3.8l8.9-10l-6.4-10l-3.8-1.3l-7.6,13.8l-3.8-7.5l-10.2,5l-8.9,5L685.8,928.3L685.8,928.3z"/>
<path id="path3201" class="st4" d="M669.3,630.5l-1.3-8.8l-20.3-5l-17.8-6.3l2.5-7.5l-6.4-7.5l-6.4,1.3l-1.3-7.5l-6.4-8.8l-3.8-10
	l8.9,1.3v-6.3l7.6-5l1.3-6.3l-8.9-7.5l-2.5-8.8l6.4-7.5l1.3-10l-10.2,1.3l-3.8-7.5l10.2-7.5l2.5-17.5l5.1,6.3l5.1-5v-18.8l8.9,7.5
	l12.7,7.5l6.4,3.8l16.5,6.3l14,3.8l19.1,2.5l14,6.3h8.9l3.8,6.3v11.3l1.3,13.8l-2.5,8.8l15.3,7.5l-5.1,8.8l-12.7-2.5l-8.9,12.5
	l7.6,6.3l-5.1,7.5l3.8,10l8.9,5l-5.1,2.5l-7.6-2.5l1.3,6.3l6.4,5l-6.4,12.5l-16.5-1.3l-10.2-5l-14-6.3L669.3,630.5L669.3,630.5z"/>
<path id="path4172" class="st4" d="M745.5,837l-11.4-5l-10.2-21.3l5.1-5v-12.5l-12.7-18.8l2.5-8.8l8.9-2.5l-19.1-10l-7.6-7.5
	l-10.2-17.5l1.3-7.5l7.6-8.8v-6.3l-11.4-16.3l1.3-21.3l-11.4-1.3l-3.8-10l12.7-2.5l11.4,2.5l11.4-13.8v-12.5l6.4-3.8l8.9,2.5
	l8.9-11.3l-8.9-6.3v-7.5l7.6,2.5l7.6-1.3l-10.2-5l-5.1-11.3l5.1-7.5l-6.4-6.3l8.9-12.5l12.7,5l5.1-10l-10.2-3.8l-5.1-6.3v-6.3v-25
	l-1.3-5l6.4-1.3l6.4,5h11.4l3.8,7.5l26.7,5l12.7-5l15.3-6.3l16.5,2.5l6.4-3.8l10.2,5l8.9-7.5l6.4,3.8l-2.5,6.3l-6.4,17.5l-1.3,10
	l-6.4,5l10.2,11.3l-1.3,7.5l-8.9,1.3l-5.1,7.5l-2.5,10l-5.1,1.3l-5.1-13.8l-3.8,5l-7.6-2.5l-3.8,2.5l10.2,7.5l2.5,10l-2.5,7.5h2.5
	l6.4,12.5h8.9l-1.3,13.8l6.4,5l-3.8,5h8.9l8.9,7.5l12.7,2.5l5.1-3.8l11.4,3.8l-2.5,7.5l-6.4-1.3l2.5,8.8l5.1,2.5l2.5,2.5l-6.4,7.5
	l-1.3,12.5l10.2,8.8l8.9,5l2.5,16.3l7.6-5l1.3,5l10.2,6.3l2.5,5l-7.6,12.5l-8.9,8.8l-8.9-3.8l-5.1-8.8l-7.6,15l-5.1-10l-7.6,13.8
	l-10.2,1.3l-8.9-7.5h-11.4l-3.8,10l11.4,8.8l12.7,7.5l-1.3,16.3l-6.4,5l-1.3,11.3L865,832l3.8,7.5l-8.9-2.5l-11.4,5h-12.7l-10.2-7.5
	l1.3-7.5l-17.8-6.3l-1.3-5l-12.7-1.3l-5.1,20l-5.1-2.5l-6.4,2.5l-7.6-8.8l-3.8,7.5L745.5,837L745.5,837z"/>
<path id="path5143" class="st4" d="M880.2,852l-14-12.5l-3.8-13.8l-2.5-7.5l-1.3-10l8.9-5l1.3-16.3l-25.4-17.5l3.8-5v-6.3l10.2,1.3
	l10.2,8.8l8.9-1.3l8.9-12.5l6.4,6.3l5.1-12.5l10.2,8.8l11.4-5l8.9-12.5l6.4-10l28-5l-17.8,2.5l14-2.5h16.5l8.9,2.5l12.7-8.8
	l12.7,2.5l5.1,8.8l14-8.8l7.6-6.3h14l-2.5,10l11.4,12.5v8.8l-3.8,6.3l-1.3,3.8l-17.8,10l10.2,2.5l2.5-3.8l8.9,2.5l5.1,10l-1.3,6.3
	l-8.9,5l12.7,8.8l2.5,7.5l-8.9,1.3l-3.8,5l6.4,5v5v2.5l-8.9,2.5l-15.3,1.3l-3.8,6.3l7.6,3.8l2.5,5l-6.4,3.8l-15.3,3.8l-15.3,3.8
	l-3.8,10l-16.5-1.3L973,874.5v3.8l7.6,8.8l10.2,2.5l2.5,8.8l-2.5,6.3l-6.4,5c0,0,7.6,3.8-1.3,6.3s-11.4,3.8-11.4,3.8l-6.4-6.3
	l-3.8-8.8l-11.4,1.3l-7.6-8.8h-10.2l-1.3-10l7.6-6.3l-15.3-3.8l-3.8-10l-8.9-1.3l-6.4-12.5l-7.6-7.5L893,847l-2.5,2.5L880.2,852
	L880.2,852z"/>
<path id="path6116" class="st4" d="M927.3,734.4l-10.2-3.8l-1.3-8.8l-8.9,3.8l-2.5-12.5l-11.4-6.3l-6.4-8.8l-1.3-12.5l8.9-8.8
	l-11.4-6.3V663l5.1,1.3l5.1-7.5l-14-5l-2.5,5h-12.7l-8.9-8.8h-11.4l5.1-6.3l-5.1-5v-12.5l-8.9-1.3l-5.1-13.8h-3.8l1.3-5l-1.3-11.3
	l-11.4-7.5h14l2.5-6.3l5.1,15h6.4l2.5-11.3l3.8-6.3h6.4l5.1-10l-11.4-11.3l7.6-3.8l-2.5-7.5l5.1-8.8l6.4-15l10.2,1.3l3.8,3.8
	l21.6-13.8l7.6,11.3l33,1.3l3.8-3.8l10.2,5l16.5-13.8l1.3,6.3l-3.8,1.3l-1.3,23.8l5.1,5l-2.5,2.5l-7.6,1.3l-2.5,6.3l10.2,2.5
	l-5.1,6.3l-1.3,12.5l6.4,11.3V608l15.3,3.8l10.2,10l24.1,1.3l6.4,10v11.3l5.1,10l5.1-10l6.4-1.3l5.1,8.8l-3.8,10l-8.9,2.5v12.5
	l6.4,3.8l7.6,1.3l10.2,3.8l5.1,6.3l3.8,5l-7.6,8.8l-10.2,7.5l-14,1.3l-21.6,13.8l-3.8-6.3l-15.3-3.8l-11.4,7.5l-8.9-1.3l-17.8,1.3
	h-15.2L927.3,734.4L927.3,734.4z"/>
<path id="path2226" class="st1" d="M1058.2,740.6L1058.2,740.6z"/>
<path id="path2228" class="st4" d="M1049.3,724.4v-10l17.8-15l-7.6-12.5l-16.5-5l-8.9-5l2.5-11.3l7.6-3.8l3.8-8.8l-5.1-8.8l-3.8-2.5
	l-8.9,12.5l-5.1-8.8l1.3-10l-7.6-11.3l-21.6-2.5l-8.9-11.3l-17.8-2.5v-16.3l-5.1-11.3v-13.8l6.4-6.3l-12.7-3.8l2.5-5l12.7-1.3
	l-6.4-7.5l2.5-23.8l2.5-6.3l20.3-3.8h14l17.8,3.8l34.3-6.3l31.8,16.3l5.1-6.3l15.3,5l16.5,10h11.4l5.1-5l8.9,2.5l19.1-10v10l6.4,1.3
	l3.8,7.5l19.1-5l7.6,1.3l-2.5,7.5l10.2,8.8l1.3,11.3l-6.4,7.5v3.8l14,13.8l-1.3,5l-3.8,1.3v3.8l7.6,3.8v10l-7.6,15v3.8l7.6,10
	l-12.7,2.5l-6.4,7.5l7.6,16.3l-7.6,2.5l7.6,11.3l-11.4,22.5l-19.1-2.5l-1.3,6.3l3.8,3.8l-5.1,3.8l-5.1-6.3h-10.2l-16.5-3.8l-5.1,5
	l5.1,5l-8.9,7.5l-17.8-13.8l-1.3-7.5l-10.2-1.3l-11.4,10l-11.4,6.3l1.3,10l-2.5,6.3l-7.6-5l-11.4,10l-10.2,2.5L1049.3,724.4
	L1049.3,724.4z"/>
<path id="path2230" class="st4" d="M1204.3,701.8l14-23.8l-8.9-11.3l7.6-1.3l-6.4-17.5l8.9-7.5h10.2l-10.2-12.5l8.9-15l1.3-12.5
	l-10.2-6.3l6.4-6.3l-12.7-15v-5l5.1-5v-12.5l-10.2-8.8l1.3-6.3l-7.6-6.3l3.8-6.3h3.8l11.4,3.8l7.6-8.8l38.1,1.3l22.9-3.8l8.9,7.5
	l7.6-10h20.3l14,5l11.4,13.8l5.1-1.3l5.1,3.8l5.1-2.5l8.9,5v6.3l6.4,1.3l15.3,7.5l10.2,2.5l3.8-3.8h5.1v10l14,3.8l12.7,7.5l-2.5,7.5
	l5.1,11.3l11.4,3.8l-5.1,6.3l11.4,1.3l5.1,7.5l-1.3,18.8h-5.1l-5.1-2.5l-7.6,7.5l-15.3-1.3l-21.6-3.8l-12.7,3.8l-10.2,6.3l8.9,10
	l-1.3,8.8l-11.4,21.3h-8.9l-19.1,2.5l-5.1-10h-6.4l-1.3,8.8l-5.1,16.3l-12.7,10l-6.4,2.5l-15.3,3.8l-6.4-5l-7.6,5l-8.9-1.3l-3.8-6.3
	l-8.9,5l-6.4-6.3l-7.6,8.8l-10.2,13.8l-20.3,1.3l-3.8-8.8l-12.7-1.3l5.1-7.5L1204.3,701.8L1204.3,701.8z"/>
<path id="path3203" class="st4" d="M1036.6,845.7l7.6-2.5l-5.1-7.5l-5.1-2.5l2.5-7.5l15.3,1.3l8.9-3.8v-8.8l-5.1-6.3l8.9-2.5
	l-1.3-7.5l-8.9-10l5.1-6.3l1.3-8.8l-2.5-5l-6.4-3.8l-7.6,3.8l-8.9-3.8l17.8-6.3l6.4-17.5l12.7-8.8l8.9-8.8l8.9,10l3.8-7.5l-3.8-8.8
	l8.9-12.5l16.5-5h6.4l8.9,7.5l10.2,15l6.4-10v-3.8l6.4-5l5.1,2.5l20.3-2.5l5.1,11.3l6.4-2.5l-5.1-6.3v-6.3l16.5,2.5l15.3,3.8
	l-7.6,11.3l12.7,1.3l2.5,6.3l-8.9,10l-8.9-6.3l-7.6-1.3l-3.8,2.5l7.6,12.5l7.6,5h-7.6l-8.9,6.3l-2.5,20l-2.5,36.3l7.6,21.3
	l-7.6,21.3l-5.1,3.8v3.8l6.4,5v5l-5.1,2.5v26.3l-16.5,10l-17.8,2.5l-11.4-8.8h-14l-12.7-6.3h-11.4l-2.5,7.5l7.6,10l-2.5,8.8
	l-6.4,8.8l-3.8,12.5l-19.1-5v-8.8l3.8-2.5l-2.5-10l-10.2-21.3l12.7-3.8l-10.2-5v-15l14,3.8v-7.5l-11.4-5l17.8-12.5v-7.5l-11.4-2.5
	l-11.4,20l-10.2-7.5L1036.6,845.7L1036.6,845.7z"/>
<path id="path4174" class="st4" d="M1187.8,854.5l8.9-23.8l-8.9-20l6.4-57.6l7.6-5l14,1.3l-10.2-5l-12.7-15l6.4-3.8l8.9,1.3l8.9,8.8
	l7.6-10l19.1,1.3l20.3-25l6.4,6.3l7.6-3.8l3.8,6.3l12.7,1.3l5.1-5l5.1,5l17.8-3.8l17.8-10l6.4-26.3h6.4l3.8,10l17.8-3.8h12.7
	l-2.5,8.8l-3.8,8.8l-8.9,16.3l-3.8,22.5l-19.1,12.5l-2.5,22.5l6.4,8.8v7.5l-8.9,17.5h-16.5l-25.4-3.8l-10.2,2.5l10.2,8.8l2.5,10
	l-6.4,2.5l-2.5-6.3l-1.3-5l-7.6-1.3l-8.9,8.8l5.1,5V852l-6.4,7.5l-2.5,25h-8.9l-6.4-13.8l-10.2-8.8l5.1-5l-10.2,2.5h-11.4l-3.8-7.5
	l-7.6,1.3h1.3V877l5.1,7.5l-6.4,5l-6.4-2.5l-3.8-6.3l-11.4-7.5L1187.8,854.5L1187.8,854.5z"/>
<path id="path2231" class="st4" d="M840.8,972.1l12.7-11.3l5.1-7.5l-5.1-8.8h7.6l5.1-13.8v-13.8l-2.5-12.5l-6.4-3.8l5.1-3.8l6.4,7.5
	l11.4-2.5h3.8l-7.6-8.8l3.8-16.3l-3.8-8.8v-12.5l5.1-5l7.6,1.3l8.9-7.5l11.4,18.8l8.9,3.8l6.4,10l12.7,5l1.3,3.8l-7.6,3.8l6.4,7.5
	l-8.9,2.5l14-1.3l7.6,8.8l11.4-3.8l2.5,12.5l7.6,3.8l-2.5,3.8l-7.6,12.5l3.8,11.3l-6.4,2.5l-7.6,20l-5.1,3.8l-2.5,6.3l-1.3,2.5
	l-16.5-1.3l-8.9,3.8h-7.6v-2.5l-8.9-1.3l-3.8,2.5l-1.3,16.3l-7.6,12.5l-11.4-10l-1.3-6.3l-2.5,8.8l-10.2-2.5l-3.8-3.8l7.6-3.8
	l-3.8-8.8l-8.9,3.8l-2.5,6.3l-3.8-7.5l8.9-12.5L840.8,972.1L840.8,972.1z"/>
<path id="path3204" class="st1" d="M797.6,1083.5L797.6,1083.5z"/>
<path id="path3206" class="st4" d="M797.6,1063.5l-11.4-17.5l29.2-10l-15.3-36.3l3.8-8.8v-11.3l8.9-23.8l7.6,2.5l1.3-6.3l15.3,18.8
	l17.8,7.5l-8.9,8.8l2.5,7.5l14-8.8l5.1,6.3l-8.9,8.8l12.7,3.8l15.3,5l-1.3,5l-3.8,11.3l-8.9,7.5l-2.5,11.3l-8.9-2.5h-6.4l-2.5,8.8
	v12.5l-16.5,7.5l-6.4,6.3l-6.4,7.5l-10.2-1.3v-7.5l-8.9,6.3l-7.6-6.3L797.6,1063.5L797.6,1063.5z"/>
<path id="path4177" class="st4" d="M906.9,1046l-15.3-6.3v-3.8l-12.7-10l3.8-10l11.4-13.8l1.3-17.5l8.9-5l3.8,5h11.4l3.8-3.8
	l21.6,2.5v-8.8l7.6-2.5l5.1-21.3l10.2-2.5l-6.4-11.3l11.4-16.3l14-6.3l-1.3-5l7.6-7.5l-2.5-12.5l-7.6-1.3l-7.6-13.8l10.2-12.5
	l17.8,2.5l6.4-10l21.6-7.5l21.6,6.3l11.4,7.5l14-20l10.2,2.5v7.5l-16.5,11.3l10.2,6.3v6.3l-12.7-3.8l-1.3,15l7.6,5l-8.9,2.5l6.4,20
	l6.4,8.8v3.8l-5.1,2.5v10v3.8l-14,6.3l5.1,12.5l-10.2,2.5l-7.6,15l7.6,8.8l1.3,6.3l-6.4,5l-2.5,10l5.1,10l-7.6,10l-5.1-3.8h-8.9
	l-6.4,5l1.3,15l6.4,2.5l3.8-5l3.8,2.5v16.3h-5.1l-8.9-7.5l-2.5,3.8l-10.2-10v-10h-5.1l-1.3-5l-10.2-2.5l6.4-5l-14-11.3l-20.3-1.3
	l-8.9,7.5h-15.3l-6.4,1.3l2.5,10l-11.4,2.5l-14-10l-7.6,5l1.3,3.8l3.8,3.8L906.9,1046L906.9,1046z"/>
<path id="path2235" class="st4" d="M703.5,1112.1l5.4-19.5l10.8,5.3l7.2-8.8v-15.9l9-19.5l18,5.3l18,12.4l-5.4,17.7l10.8,1.8
	l5.4-19.5l21.6,14.2l18,3.5l3.6,8.8l7.2,5.3v12.4l-1.8,10.6l-9,14.2l-3.6,14.2l-12.6-14.2h-23.4l-18-5.3h-14.4l-16.2-3.5
	L703.5,1112.1L703.5,1112.1z"/>
<path id="path3207" class="st4" d="M773.6,1142.2l32.4,7.1l-3.6,17.7L773.6,1142.2z"/>
<path id="path2237" class="st4" d="M828.9,1088.7l2.7,5.8l4.5,7.5l2.2,13.7l17.5-7.5l16.6-4.4l-7.6-14.2l-8.1-13.7l-16.2,0.9
	L828.9,1088.7L828.9,1088.7z"/>
<path id="path3208" class="st4" d="M861.7,1061.3l-1.3,11.9l7.6,9.7l2.2,5.8l4.9-0.9l6.7-10.2l7.6-12.8l-3.6-9.3l0.4-10.6l-7.3-8.5
	l-7.6,14.3l-12.1-3.1l-0.4,9.3L861.7,1061.3z"/>
<path id="path4179" class="st4" d="M880.5,1090.5l11.2-20.4l4-6.2l-5.4-8.8l1.8-15l14.4,6.2l6.3-9.3l-3.1-5.3l-0.9-4l5.8-3.5
	l14.8,9.7l11.2-3.1l-1.3-9.3l6.7-1.8l14.8,0.4l8.1-7.5l19.3,1.3l-3.1-0.9l11.2,6.2l6.7,5.8l-5.4,4.4l9.4,3.1l1.8,4.4h4.9l-0.9,9.7
	l10.3,9.7l2.2,4.4l-0.4,11.5l3.1,7.5l10.3,10.6l-0.4,7.1l6.3,2.2l-3.1,2.7l0.4,5.3l13,10.2l6.7,21.7l6.7,21.7l1.1,7.5l-1.6,5.4
	l0.9,4.4l9,4.9l-3.6,3.1l-0.4,4l3.1,6.6l2.7,3.5l-0.9,4.4l1.8,34.1l4.5,5.8l4.9,9.7l-1.3,11.1l-9.9,5.8l-12.6-6.6l-10.8,0.4
	l-16.2-2.2l-8.1-5.3l-8.1-0.4l-9.4,5.3l-3.1-2.2h-9l-11.7-5.8l-5.8-10.2l-0.4,0.9l-7.2-0.4l-4.9-7.1l8.5-2.2l5.4-7.5l-0.9-15.5
	l5.8-9.7l-6.7-6.2l-1.3-9.7l-8.1-9.7l-3.6-8l-13.5-9.7l-1.8-8.8l-9.4-6.2l-3.6-17.3l-18-4.9l-13,11.1l-4.9-3.1l-4.9,10.2h-5.4
	l-12.1-6.6v-8.4h-0.4l-5.8-6.2l-8.5-8.4l7.2-4l-0.4-8.4L880.5,1090.5L880.5,1090.5z"/>
<path id="path5150" class="st4" d="M847.2,1286.2l-12.7-21.3l-5.1-12.5l6.4-17.5l8.9-15l11.4-12.5l3.8-12.5l-5.1-10v-8.8l-8.9-5
	l-8.9-2.5v-8.8l-7.6-3.8l6.4-12.5l2.5-12.5l1.3-10l12.7-3.8l8.9-3.8l7.6-1.3l14,12.5l1.3,8.8l14,6.3l6.4-8.8l5.1,5l12.7-16.3
	l21.6,6.3l2.5,16.3l11.4,7.5l1.3,11.3l12.7,11.3l11.4,15l-1.3,8.8l10.2,8.8l-7.6,7.5l1.3,16.3l-3.8,8.8H973l-5.1,2.5l-7.6-5l-14,1.3
	l-6.4-10h-6.4l-7.6,3.8l-3.8,12.5l-2.5,8.8l-17.8,6.3h-6.4l-12.7,7.5h-2.5l-3.8-7.5h-3.8l-3.8,5l-1.3,12.5v6.3l-7.6,8.8
	L847.2,1286.2L847.2,1286.2z"/>
<path id="path6121" class="st4" d="M857.4,1288.7l3.8,12.5l16.5,6.3l2.5,10l5.1,10l16.5,13.8l6.4,23.8l11.4,26.3l5.1,20l22.9,22.5
	l7.6,13.8l17.8,6.3l20.3-15l-3.8-17.5l-14-22.5l1.3-7.5l-20.3-30l-1.3-20l12.7-6.3l3.8-15v-21.3L959,1290l-15.3-6.3l-1.3-5l10.2-3.8
	l-5.1-8.8l6.4,1.3l12.7-28.8l-7.6-3.8h-12.7l-5.1-10l-14,2.5l-7.6,25l-20.3,6.3l-2.5-2.5l-16.5,8.8l-5.1-7.5h-3.8l-3.8,3.8v23.8
	L857.4,1288.7L857.4,1288.7z"/>
<path id="path2242" class="st4" d="M612.1,1587.8l-2.5-18.8l-7.6-10l1.3-18.8l10.2-17.5l-2.5-11.3V1494l8.9-10h5.1l-6.4-6.3
	l-15.3-23.8l17.8,10l11.4,10l-1.3-11.3l-5.1-13.8l6.4-8.8l-6.4-17.5v-18.8l-5.1-5l-17.8-2.5l-1.3-13.8l20.3-7.5v-21.3l-1.3-5
	l2.5-3.8l1.3-8.8l19.1,2.5l6.4-8.8h1.3l8.9,11.3l-1.3,12.5h6.4l7.6,11.3h7.6l2.5,7.5l19.1,3.8l8.9,2.5l-1.3,6.3l-5.1,1.3v6.3
	l-8.9,6.3l-2.5,10l-14,8.8l7.6,7.5v10l-12.7,2.5v25l20.3,3.8l2.5,2.5l-2.5,6.3l-12.7,12.5l-7.6-6.3l-6.4,3.8l-7.6-3.8l1.3,15
	l-7.6,11.3l1.3,10l7.6-3.8l2.5,15l-3.8,7.5l-3.8,17.5l-8.9,16.3l-8.9,1.3l-15.3,16.3L612.1,1587.8L612.1,1587.8z"/>
<path id="path3218" class="st4" d="M662.9,1514l-6.4,5l-2.5-10l8.9-11.3l-3.8-18.8l7.6,7.5l8.9-5l5.1,5l15.3-10l1.3-7.5l-20.3-6.3
	l-1.3-23.8l12.7-3.8v-8.8l-8.9-10l14-7.5l1.3-10l11.4-6.3l-1.3-3.8l6.4-2.5l1.3-6.3l-8.9-5l8.9-7.5l5.1-2.5l2.5,7.5h7.6l5.1-2.5
	l10.2,11.3l-3.8,5l-1.3,6.3l2.5,3.8h7.6l3.8,6.3l21.6,3.8l1.3,5l-6.4,1.3l-3.8,6.3l14,2.5l1.3,6.3l-11.4,2.5c0,0,2.5,7.5-2.5,7.5
	s-10.2-5-10.2-5l-3.8,5l-7.6-1.3l-3.8,7.5l-2.5,7.5l-8.9,3.8l-14,8.8l-8.9,6.3l-1.3,8.8l-2.5,15l-10.2,6.3l-5.1,11.3l-6.4,7.5
	L662.9,1514L662.9,1514z"/>
<path id="path4189" class="st4" d="M706.1,1467.7l16.5-8.8l16.5-7.5l5.1-13.8h7.6l2.5-3.8l15.3,3.8l2.5-8.8h8.9l-1.3-7.5l-15.3-2.5
	l3.8-7.5l6.4,1.3l-1.3-6.3l-20.3-2.5l-5.1-6.3l-10.2-1.3l1.3-7.5l5.1-3.8l-11.4-13.8h-8.9l-5.1-6.3l-16.5,10l-20.3-3.8l-1.3-5h-5.1
	l-7.6-12.5h-8.9l1.3-12.5l-7.6-10v-15l11.4-12.5l1.3-6.3l11.4-6.3l2.5-6.3l11.4-1.3v-15l15.3,1.3l5.1-7.5l6.4,2.5l-1.3,30l17.8,7.5
	l10.2-2.5l6.4-3.8l7.6,5l3.8-8.8l15.3-7.5l17.8,3.8l17.8,10l12.7,11.3l15.3,6.3l15.3,6.3l11.4,10l7.6,17.5l-7.6,8.8l-12.7,6.3
	l-21.6,15l-11.4,11.3l-1.3,8.8l-15.3,2.5l8.9,13.8l-3.8,10l1.3,11.3l5.1,7.5l-15.3,1.3l-14,7.5v8.8l-2.5,8.8l-8.9-2.5l-7.6-1.3
	l-16.5-7.5l-8.9,5l-1.3,6.3l-15.3,6.3l-1.3-11.3L706.1,1467.7L706.1,1467.7z"/>
<path id="path2245" class="st4" d="M708.9,1466.1l18,1.8l-1.8,8.8l18-5.3v-3.5l10.8-7.1l12.6,5.3l-3.6,14.2l-12.6,1.8l-12.6,17.7
	l5.4,14.2l-3.6,10.6l-18,3.5l-7.2,12.4l-1.8,14.2l5.4,7.1l16.2-15.9l9-3.5l7.2,3.5l30.6,1.8l1.8,12.4l-18,17.7l-5.4,10.6l12.6,7.1
	v10.6l-12.6,21.2l-10.8,12.4v26.5l-18,21.2l1.8,19.5l-16.2,5.3l-14.4,8.8l-16.2-3.5l-12.6-10.6l-23.4-5.3l5.4-8.8l-7.2-8.8
	c0,0-7.2-19.5,1.8-19.5s21.6-7.1,21.6-7.1l-12.6-5.3l-12.6-1.8l1.8-17.7l9-10.6l-5.4-8.8l-5.4,12.4l-9,1.8l-1.8,12.4l5.4,5.3
	l-9,10.6l-14.4-23l-3.6-17.7V1590l0,0l18-8.8l9-10.6l7.2,3.5l12.6-26.5l5.4-14.2l-3.6-15.9l18,1.8l12.6-15.9l10.8-7.1l1.8-14.2
	L708.9,1466.1L708.9,1466.1z"/>
<path id="path3216" class="st4" d="M766.4,1613l3.6-17.7l-12.6-7.1l19.8-21.2l5.4-5.3l-3.6-14.2l-27,1.8l-9-5.3l-25.2,14.2l-3.6-8.8
	l1.8-17.7l23.4-5.3l3.6-10.6l-7.2-15.9l14.4-15.9l10.8-1.8l5.4-14.2l16.2,1.8l5.4-15.9l25.2-7.1l1.8-12.4l12.6,12.4l10.8,14.2
	l-1.8,17.7l14.4,5.3l9,28.3l-12.6,7.1v15.9l-10.8,21.2l-7.2,19.5l-3.6,10.6l3.6,24.8l-32.4,10.6L766.4,1613z"/>
<path id="path4187" class="st4" d="M771.8,1621.8l18,8.8l9,8.8l1.8,14.2l-5.4,15.9l-9,12.4l-19.8-8.8l-5.4,12.4l-5.4,17.7l-12.6,5.3
	l3.6-19.5l7.2-14.2V1659l7.2-14.2L771.8,1621.8L771.8,1621.8z"/>
<path id="path4190" class="st4" d="M807.7,1630.7l16.2-10.6l5.4,10.6l-1.8,12.4l-10.8,12.4l-9,8.8v-19.5L807.7,1630.7L807.7,1630.7z
	"/>
<path id="path4192" class="st4" d="M827.5,1660.8l-16.2,15.9l-5.4,15.9l14.4,7.1l10.8-12.4l-3.6-12.4L827.5,1660.8L827.5,1660.8z"/>
<path id="path5169" class="st4" d="M832.9,1598.8l16.2-17.7l14.4-21.2l1.8-31.9l-1.8-23l-7.2-19.5l-7.2-19.5v-19.5l-12.6-10.6
	l-12.6-14.2l1.8-15.9l10.8-17.7l16.2-8.8l7.2-8.8l25.2-1.8l5.4,19.5l10.8,38.9l18,21.2l12.6,15.9l7.2,10.6l-1.8,19.5l-5.4,5.3v23
	l-7.2,15.9L921,1551l-3.6,15.9v15.9v12.4l-12.6,8.8l-7.2,14.2l-21.6,7.1l-1.8,10.6l-10.8,5.3l-14.4,8.8c0,0-5.4-1.8-5.4-8.8
	c0-7.1-5.4-15.9-5.4-15.9l9-12.4L832.9,1598.8L832.9,1598.8z"/>
<path id="path5171" class="st4" d="M843.7,1673.1l9-12.4l10.8,14.2l-7.2,7.1L843.7,1673.1z"/>
<path id="path5173" class="st4" d="M960.5,1515.6l-7.2,23l-9,26.5v24.8l18,19.5v-23v-23l9-23l1.8-12.4L960.5,1515.6L960.5,1515.6z"
	/>
<path id="path5175" class="st4" d="M870.7,1646.6l-5.4,14.2h18L870.7,1646.6z"/>
<path id="path6152" class="st4" d="M957.8,1338.8l10.2-12.5l5.1-20l-10.2-12.5l-17.8-12.5l2.5-12.5l15.3-27.5l20.3,7.5l20.3,17.5
	l20.3-7.5l12.7,2.5l28,7.5l2.5,10l-2.5,12.5v10l-7.6,22.5l22.9-2.5h12.7l-10.2,15v12.5l5.1,17.5l-15.3-7.5l-15.3,5l-28-2.5l-15.3-10
	l-7.6,10c0,0-7.6,7.5-17.8,2.5C978.1,1358.8,960.3,1341.3,957.8,1338.8L957.8,1338.8z"/>
<path id="path6154" class="st4" d="M983.2,1393.8h28l12.7,15l10.2,17.5l-7.6,15l-17.8,7.5l-12.7-2.5l-2.5-22.5L983.2,1393.8
	L983.2,1393.8z"/>
<path id="path6156" class="st4" d="M1026.4,1378.8l33,2.5l15.3,12.5l-2.5,15l-22.9-10L1026.4,1378.8L1026.4,1378.8z"/>
<path id="path6158" class="st4" d="M1072.2,1453.9l-25.4-7.5v-20v-12.5l20.3,10l7.6,12.5L1072.2,1453.9z"/>
<path id="path6160" class="st4" d="M978.1,1466.4l33,2.5l10.2,22.5l2.5,20l10.2,12.5l-2.5,27.5l-5.1,27.5l-17.8,12.5l-15.3,17.5
	l-7.6-2.5l2.5-25l2.5-27.5l2.5-25l-2.5-25L978.1,1466.4z"/>
<path id="path7138" class="st4" d="M1088.1,1361.7l-7.2-10.6l1.8-10.6l10.8-19.5l-12.6,1.8l-16.2-3.5l-5.4,5.3l3.6-14.2l-1.8-12.4
	l3.6-10.6l-5.4-21.2l19.8,5.3l10.8-8.8l10.8,3.5l7.2-7.1l-5.4-15.9l-3.6-10.6v-10.6l3.6-14.2l1.8-12.4l16.2,3.5l10.8,17.7l10.8,21.2
	l3.6,15.9v14.2l12.6,17.7l-1.8,12.4l14.4,5.3l-19.8,1.8l1.8,19.5h-14.4l-10.8,7.1l-5.4,15.9l-12.6,17.7v12.4l-7.2-3.5v-8.8
	L1088.1,1361.7L1088.1,1361.7z"/>
<path id="path2436" class="st4" d="M1075.5,1374.1l16.2,5.3l3.6,12.4l-5.4,1.8L1075.5,1374.1L1075.5,1374.1z"/>
<path id="path2438" class="st4" d="M1086.3,1409.5l10.8,19.5l7.2,10.6v7.1l-3.6,1.8l-3.6,17.7l5.4,19.5l16.2,17.7l10.8,5.3v10.6
	l1.8,3.5h14.4l9-10.6l3.6-10.6v-10.6l-3.6-10.6l-28.8-47.8l-1.8-10.6L1086.3,1409.5z"/>
<path id="path2440" class="st4" d="M1240.9,1567l-10.8-7.1l-3.6-21.2l-1.8-19.5v-7.1l-12.6-19.5l-9-24.8l-14.4-12.4l-10.8-15.9
	l-7.2-14.2v-5.3l-7.2-8.8l-9-7.1l-27-19.5l5.4-8.8l-12.6-12.4l1.8-10.6l5.4-21.2l18-7.1h7.2l1.8-17.7h14.4l12.6,3.5l7.2-8.8
	l21.6-5.3l10.8,5.3l3.6,10.6l-7.2,12.4l9,12.4l9,17.7l9,15.9l7.2,12.4v-14.2h14.4l7.2,5.3v15.9l12.6,1.8l3.6,17.7l1.8,19.5l5.4,14.2
	l-1.8,12.4l12.6,8.8l3.6-8.8l1.8-8.8l-5.4-7.1l1.8-15.9l14.4-5.3l14.4,15.9l12.6,30.1l3.6,21.2l-12.6,23l19.8,14.2l-3.6,14.2
	l-1.8,8.8l5.4,21.2l1.8,8.8v8.8l5.4,8.8l-3.6,10.6l3.6,17.7l10.8,21.2l-5.4,10.6l-5.4,7.1l5.4,12.4l-12.6,3.5l-10.8-3.5l3.6-10.6
	H1338l-10.8,10.6l-19.8,3.5l-10.8,10.6l-18,10.6l-3.6-14.2l9-12.4l-14.4-12.4v-15.9l-10.8-14.2l-3.6-24.8l-9-8.8L1240.9,1567
	L1240.9,1567z"/>
<path id="path4385" class="st1" d="M1288.2,1403.9L1288.2,1403.9z"/>
<path id="path4387" class="st1" d="M1270.4,1388.8L1270.4,1388.8z"/>
<path id="path4391" class="st4" d="M1288.2,1401.3l17.8-22.5v-17.5l7.6-25l35.6-25l-10.2-47.6l25.4-12.5l-5.1-22.5l-12.7-32.5
	l5.1-20l-17.8-17.5l25.4-30l-30.5-67.6l-15.3,2.5l-17.8-30h-7.6l-10.2,10l10.2,42.5l5.1,27.5l-7.6,10v15l-15.3-5l-17.8,15l-17.8,30
	l-7.6,22.5l12.7,22.5l2.2,31.7l-3.1,8.1l-9.3,0.3v7.5l-20.3,25l15.3,12.5l-5.1,10l2.5,10l15.3,32.5l15.3,20l2.5-10l17.8,2.5l2.5,15
	L1288.2,1401.3L1288.2,1401.3z"/>
<path id="path7308" class="st4" d="M1377.2,1699.2l-10.2,12.5l-17.8-7.5l-5.1-10l-15.3-22.5l7.6-10h12.7l5.1,10l17.8,2.5v-10l7.6-20
	l-7.6-12.5l-5.1-25l-2.5-12.5l-5.1-25l-5.1-17.5l5.1-25l15.3,5l15.3-7.5h25.4l15.3,10l22.9,12.5l12.7,27.5l12.7,35l-5.1,10
	l15.3,32.5l15.3,42.5l2.5,12.5l-2.5,27.5v17.5l-2.5,20l2.5,25l7.6,27.5l2.5,27.5l2.5,22.5l12.7,22.5l-12.7,5l-12.7,15l-7.6-5
	l-2.5-12.5l-7.6-17.5l2.5-10l-7.6-2.5l-7.6,5l-12.7,2.5l-15.3-5l-2.5-10l-10.2-25l-7.6-5l-10.2,12.5l-5.1,10l-10.2-2.5l-12.7,22.5
	l-7.6,2.5l-7.6,10l2.5,20l-7.6,17.5l-2.5-25l-7.6-20l-2.5-10l15.3-17.5l10.2,10l7.6-15l-10.2-20l-10.2-17.5l5.1-10l-12.7-12.5
	l-5.1-15l-7.6-20l12.7-12.5h20.3v-15h12.7v-7.5L1377.2,1699.2L1377.2,1699.2z"/>
<path id="path8279" class="st1" d="M1306,1463.9l-10.2-10"/>
<path id="path8281" class="st4" d="M1290.7,1426.4l-5.1-25l12.7-15l10.2-17.5l2.5-30l38.1-27.5l-2.5-15l-5.1-27.5l22.9-17.5l-5.1-20
	l-7.6-32.5v-17.5l-17.8-25l22.9-30l-10.2-25l-17.8-45l5.1-7.5l20.3-20h12.7l7.6,12.5l5.1,20l5.1-17.5l5.1-10l12.7,5l-7.6,17.5
	l5.1,17.5l5.1,12.5l5.1,45l12.7,17.5l7.6,15l-5.1,10l7.6,7.5l2.5,10l-17.8,12.5l2.5,20l2.5,17.5l2.5,12.5l10.2,12.5l-7.6,40l10.2,20
	l20.3,10l-5.1,12.5l7.6,30l15.3,15l2.5,20l5.1,25l-7.6,5l7.6,25l5.1,30l5.1,25v15l5.1,20l5.1,20v22.5l-12.7-5l7.6,27.5l10.2,40
	l7.6,25l-10.2,17.5l-5.1-12.5l-7.6-22.5l-7.6-25l-12.7-25l2.5-7.5l-5.1-20l-10.2-35l-10.2-10l-25.4-17.5l-33-7.5l-22.9,10
	l-15.3-12.5l-10.2-15l7.6-20l-2.5-20l-12.7-25l-15.3-22.5l-7.6,2.5l-10.2,15l7.6,20l-5.1,10l-10.2-12.5L1290.7,1426.4L1290.7,1426.4
	z"/>
<path id="path9252" class="st5" d="M358.4,1747.5l-10.8-1.8l-7.2-15.9l-10.8-7.1l5.4-23l-10.8-19.5l5.4-10.6l7.2,15.9l7.2,17.7v12.4
	l16.2,12.4L358.4,1747.5z"/>
<text id="text442" transform="matrix(0.9299 0 0 1 729.6426 1022.9308)" class="st6 st7 st8">Dhaka</text>
<text id="text444" transform="matrix(0.9299 0 0 1 979.3887 1161.6261)" class="st6 st7 st8">Comilla</text>
<text id="text446" transform="matrix(0.9299 0 0 1 730.8164 1115.9113)" class="st6 st7 st8">Munshiganj</text>
<text id="text448" transform="matrix(0.9299 0 0 1 753.9668 716.6993)" class="st6 st7 st8">Mymensingh</text>
<text id="text450" transform="matrix(0.9299 0 0 1 1283.3408 626.2111)" class="st6 st7 st8">Sylhet</text>
<text id="text452" transform="matrix(0.9299 0 0 1 1257.1357 1231.7638)" class="st6 st7 st8">Khagrachari</text>
<text id="text454" transform="matrix(0.9299 0 0 1 873.6406 1491.2531)" class="st6 st7 st8">Bhola</text>
<text id="text456" transform="matrix(0.9299 0 0 1 652.1934 1602.5206)" class="st6 st7 st8">Borguna</text>
<text id="text458" transform="matrix(0.9299 0 0 1 320.7656 1391.379)" class="st6 st7 st8">Shatkhira</text>
<text id="text460" transform="matrix(0.9299 0 0 1 571.0713 1274.9747)" class="st6 st7 st8">Gopalganj</text>
<text id="text462" transform="matrix(0.9299 0 0 1 421.6396 1145.2599)" class="st6 st7 st8">Magura</text>
<text id="text464" transform="matrix(0.9299 0 0 1 217.6226 1083.6642)" class="st6 st7 st8">Chuadanga</text>
<text id="text466" transform="matrix(0.9299 0 0 1 423.623 925.3781)" class="st6 st7 st8">Pabna</text>
<text id="text468" transform="matrix(0.9299 0 0 1 155.0513 763.6642)" class="st6 st7 st8">Rajshahi</text>
<text id="text470" transform="matrix(0.9299 0 0 1 443.0508 485.3781)" class="st6 st7 st8">Gaibandha</text>
<text id="text472" transform="matrix(0.9299 0 0 1 369.0508 237.0919)" class="st6 st7 st8">Lalmonirhat</text>
<text id="text474" transform="matrix(0.9299 0 0 1 1355.0518 1399.6642)" class="st6 st7 st8">Rangamati</text>
<g id="g4653">
	<path id="path5364" class="st4" d="M1275.5,1699.2l28-15l12.7-10l12.7-2.5l17.8,30l20.3,10l7.6-2.5l5.1-12.5l12.7,17.5v7.5h-12.7
		l-2.5,17.5h-22.9l-10.2,12.5l10.2,25l20.3,20l-7.6,12.5l12.7,20l10.2,12.5l-5.1,17.5h-10.2l-2.5-10l-17.8,20l5.1,22.5l16.2,18.5
		l2.5,12.5l-12.2,14.5l11.1,20l18.8,23.5l-11.1,14l12.6,20l5.2,15.9l-4.9,9.9l7.3,16.2l10.2,25l-2.5,12.5l-7.6-7.5l-10.2-27.5
		l-12.7-15l-10.2-17.5l-7.6-17.5v-15l-43.2-50.1l-5.1-40v-17.5l-7.6-17.5l-15.3-20l-2.5-10l12.7-15l2.5-17.5l5.1-15l5.1-22.5
		l-2.5-27.5l-10.2,22.5l-12.7-7.5l10.2,17.5l7.6,20l-12.7,25l2.5,2.5l-25.4-2.5l2.5,12.5h-15.3l-2.5-12.5l7.6-22.5l5.1-20l-12.7-10
		L1275.5,1699.2L1275.5,1699.2z"/>
	<text id="text478" transform="matrix(0.9299 0 0 1 1274.7666 1727.3781)" class="st6 st7 st8">Cox&apos;s Bazar</text>
	<path id="path3682" class="st9" d="M1287.1,1747.7l25.4-5l5.1,25l-7.6,22.5l-15.3,25l2.5-17.5l2.5-35L1287.1,1747.7z"/>
</g>
<text id="text482" transform="matrix(0.9299 0 0 1 981.0518 1336.5206)" class="st6 st7 st8">Noakhali</text>
<text id="text484" transform="matrix(0.9299 0 0 1 877.9082 1199.6642)" class="st6 st7 st8">Chandpur</text>
<text id="text486" transform="matrix(0.9299 0 0 1 755.0518 1519.6642)" class="st6 st7 st8">Patuakhali</text>
<text id="text488" transform="matrix(0.9299 0 0 1 431.8438 1483.9015)" class="st6 st7 st8">Khulna</text>
<text id="text490" transform="matrix(0.9299 0 0 1 629.833 1390.9669)" class="st6 st7 st8">Pirojpur</text>
<text id="text492" transform="matrix(0.9299 0 0 1 650.0361 1233.3829)" class="st6 st7 st8">Madaripur</text>
<text id="text494" transform="matrix(0.9299 0 0 1 326.7871 1116.2052)" class="st6 st7 st8">Jhinaidaha</text>
<text id="text496" transform="matrix(0.9299 0 0 1 181.4473 1025.2716)" class="st6 st7 st8">Meherpur</text>
<text id="text498" transform="matrix(0.9299 0 0 1 600.5684 997.8448)" class="st6 st7 st8">Manikganj</text>
<text id="text500" transform="matrix(0.9299 0 0 1 772.1934 902.5206)" class="st6 st7 st8">Gazipur</text>
<text id="text502" transform="matrix(0.9299 0 0 1 932.8789 999.0284)" class="st6 st7 st8">Brahmanbaria</text>
<text id="text504" transform="matrix(0.9299 0 0 1 325.1113 801.0382)" class="st6 st7 st8">Nator</text>
<text id="text506" transform="matrix(0.9299 0 0 1 1086.4805 619.6642)" class="st6 st7 st8">Sunamganj</text>
<text id="text508" transform="matrix(0.9299 0 0 1 566.4805 636.8068)" class="st6 st7 st8">Jamalpur</text>
<text id="text510" transform="matrix(0.9299 0 0 1 316.4795 552.8068)" class="st6 st7 st8">Jaipurhat</text>
<text id="text512" transform="matrix(0.9299 0 0 1 263.6226 242.5206)" class="st6 st7 st8">Nilfamari</text>
<text id="text514" transform="matrix(0.9299 0 0 1 46.4795 239.6642)" class="st6 st7 st8">Thakurgaon</text>
<text id="text516" transform="matrix(0.9299 0 0 1 1092.1934 812.5197)" class="st6 st7 st8">Habiganj</text>
<text id="text518" transform="matrix(0.9299 0 0 1 127.042 122.8038)" class="st6 st7 st8">Panchagarh</text>
<text id="text520" transform="matrix(0.9299 0 0 1 884.1855 631.0919)" class="st6 st7 st8">Netrokona</text>
<text id="text522" transform="matrix(0.9299 0 0 1 621.3281 805.3781)" class="st6 st7 st8">Tangail</text>
<text id="text524" transform="matrix(0.9299 0 0 1 1227.875 1528.2667)" class="st6 st7 st8">Chittagong</text>
<text id="text526" transform="matrix(0.9299 0 0 1 761.3281 1351.0919)" class="st6 st7 st8">Barisal</text>
<text id="text528" transform="matrix(0.9299 0 0 1 487.042 1248.2355)" class="st6 st7 st8">Narail</text>
<text id="text530" transform="matrix(0.9299 0 0 1 875.6133 939.6642)" class="st6 st7 st8">Narsingdi</text>
<text id="text532" transform="matrix(0.9299 0 0 1 469.8984 1039.6642)" class="st6 st7 st8">Rajbari</text>
<text id="text534" transform="matrix(0.9299 0 0 1 24.1846 685.3781)" class="st6 st7 st8">Nawabganj</text>
<text id="text536" transform="matrix(0.9299 0 0 1 427.042 639.6642)" class="st6 st7 st8">Bogra</text>
<text id="text538" transform="matrix(0.9299 0 0 1 189.8989 351.0919)" class="st6 st7 st8">Dinajpur</text>
<text id="text540" transform="matrix(0.9299 0 0 1 501.3281 325.3781)" class="st6 st7 st8">Kurigram</text>
<text id="text542" transform="matrix(0.9299 0 0 1 1228.6709 767.1554)" class="st6 st7 st8">Maulvibazar</text>
<text id="text544" transform="matrix(0.9299 0 0 1 1405.8135 1692.8693)" class="st6 st7 st8">Bandarban</text>
<text id="text546" transform="matrix(0.9299 0 0 1 1092.957 1298.5841)" class="st6 st7 st8">Feni</text>
<text id="text548" transform="matrix(0.9299 0 0 1 879.5273 1310.0128)" class="st6 st7 st8">Lakshmipur</text>
<text id="text550" transform="matrix(0.9299 0 0 1 694.3848 1424.299)" class="st6 st7 st8">Jhalokati</text>
<text id="text552" transform="matrix(0.9299 0 0 1 528.1523 1445.2726)" class="st6 st7 st8">Bagerhat</text>
<text id="text554" transform="matrix(0.9299 0 0 1 350.3643 1247.2833)" class="st6 st7 st8">Jessore</text>
<text id="text556" transform="matrix(0.9299 0 0 1 305.918 976.5626)" class="st6 st7 st8">Kushtia</text>
<text id="text558" transform="matrix(0.9299 0 0 1 734.9395 1213.4113)" class="st6 st7 st8">Shariatpur</text>
<text id="text560" transform="matrix(0.9299 0 0 1 572.5986 1126.0646)" class="st6 st7 st8">Faridpur</text>
<text id="text562" transform="matrix(0.9299 0 0 1 796.9873 1019.6222)" class="st6 st7 st8">Narayanganj</text>
<text id="text564" transform="matrix(0.9299 0 0 1 925.8135 801.4415)" class="st6 st7 st8">Kishoreganj</text>
<text id="text566" transform="matrix(0.9299 0 0 1 462.957 801.4415)" class="st6 st7 st8">Sirajganj</text>
<text id="text568" transform="matrix(0.9299 0 0 1 188.6709 624.299)" class="st6 st7 st8">Naogaon</text>
<text id="text570" transform="matrix(0.9299 0 0 1 645.8145 550.0128)" class="st6 st7 st8">Sherpur</text>
<text id="text572" transform="matrix(0.9299 0 0 1 354.9561 350.0128)" class="st6 st7 st8">Rangpur</text>
<path id="path5037" class="st10" d="M528.2,563.5l-4.2-3.4l-21.8,2.9l-2.5,8.4h-6.3l-4.2-5.9l-16-2.5l-9.7-10.5l-4.2,7.1l-10.1-5.9
	l-3.8,5.5l-10.9-1.3l-2.9-12.6L422,542l-13-2.5l-5.9,4.2l-1.3,0.8l-7.1-5l2.1-2.9l-10.9-13.9l-6-3.6l-4.9-9.4l4.2-11.8l-12.6-3.8
	l-19.3,2.1l-6.7-9.7l-12.6,3.4l-12.6-9.2l0,0l0,0l0,0"/>
<path id="path1604" class="st1" d="M570.8,732.7l11.8,3.8l1.3-5.5l9.3-15l3-7.8l4.8-3.3l5.8-8"/>
<path id="path2332" class="st1" d="M606.3,696.6l7.3,1.8v-5l-8.3-6.8l-2.8-7.5l1.8-6l3.5,4.8l13.5-7.8l0.3-7.5l8,4.5l11,14
	l14.8-23.3l12.8-4.5l6.8,3.8l3,10.3l10.5,1l-0.3,20.5l10.5,15.5l0.3,6.8l-6.5,8.5l-1.3,8.3l6.5,13l2.8,5.5l8.8,6.8l18,10l-8.3,2.3
	l-2.8,8.5l11.5,18.8l1.5,11.5l-4.8,6.3l9.8,21.3l12.3,5.3l21-3.8l3.3-6.8l7.3,7.8l6.8-2l5.3,4l5.5-21.5l12.3,1.3l1.5,4.3l17.3,6.5
	L826,834l10.3,8H849l9.8-4.5l7.5,1l-6.8-19.8v-11.3l7-4.8l1.8-15.8l-24.5-17.8l3.8-4.8l-0.5-6.8l11.5,1.5l9.8,8.3l8.8-1.5l8.3-12.8
	l6.3,7.8l5.5-13l10.5,8.5l10.8-5l10.3-14l-1.8-3l15.3-8.5l33-1.5l9.3,1.8l11.8-8l14.5,3.8l3.8,6.5l22.8-14.3l14.3-1.8"/>
</svg>
